<svg width="78" height="81" viewBox="0 0 78 81" fill="none" xmlns="http://www.w3.org/2000/svg">
<g opacity="0.2">
<path d="M39.0328 61.2911C51.1666 61.2911 61.003 51.3923 61.003 39.1817C61.003 26.971 51.1666 17.0723 39.0328 17.0723C26.8989 17.0723 17.0625 26.971 17.0625 39.1817C17.0625 51.3923 26.8989 61.2911 39.0328 61.2911Z" fill="white"/>
<path fill-rule="evenodd" clip-rule="evenodd" d="M39.0098 17.6504C35.8068 17.6504 32.7685 18.3611 30.037 19.6356L30.6216 20.4467L31.6126 20.5007L32.2069 19.9195L32.6574 20.1454L31.835 20.9507C31.835 20.9507 30.6964 20.9738 30.75 20.9738C30.8076 20.9738 30.844 21.7618 30.844 21.7618L32.2241 21.7251L32.3756 21.3466L33.3263 21.2925L33.4375 20.7247L32.8739 20.6301L33.0618 20.1223L33.4912 19.9909L34.9844 20.0682L34.1621 20.8194L34.2962 21.4045L35.155 21.5358L35.0975 20.4834L35.9198 20.0508L37.3765 19.8789L39.4852 20.8194V21.6305L40.1601 21.8023L39.8205 22.4415H38.8679L38.5862 23.1715L36.4105 22.6539L38.1222 21.7405L37.4706 21.1824L35.9965 21.3678L35.8662 21.503H35.8623L35.8355 21.5339L35.4157 21.9742L34.7141 22.0379L34.7678 22.3894L35.0132 22.4937L35.0036 22.6115L34.4324 22.6926L34.3921 23.0247L33.8477 23.0517L33.7442 22.3894L32.7647 22.6906L30.7635 23.8705L30.9878 24.7029L31.5513 25.0679L32.6688 25.2262V26.5085L33.1864 26.4235L33.6637 25.4193L34.856 25.0408V23.5017L35.5173 22.9977L37.1179 23.3801L37.0067 24.392H37.4363L38.6112 23.8107L38.6688 25.1431L39.5274 25.6704L39.4909 26.4621L38.6688 26.746L38.7259 27.0067L39.7133 27.4605L39.6961 28.0051L39.4048 28.0283C39.4048 28.0186 39.4048 28.0148 39.4048 28.0148L38.1587 27.6285L38.1051 27.223H38.1011L38.4676 26.97V26.6012L38.0743 26.5027L37.9767 26.8445L37.2885 26.9488L37.2214 26.9256V26.9623L36.9837 26.999L36.7863 26.6031L36.562 26.5046H36.0693L35.847 26.69V27.0955L36.2668 27.2346L36.6828 27.2925L36.5888 27.3331L36.2131 27.756L36.0425 27.5436L35.6802 27.4489L34.6835 28.3894L34.8138 28.4975L33.3436 29.3163L31.9634 30.7666L31.8695 31.4096L30.4836 32.3289L29.7954 33.0221L29.8721 34.4183L28.9214 33.9723L28.931 33.1573H26.2761L24.9036 33.8545L24.3094 34.961L24.0736 35.8397L24.457 36.6913L25.5381 36.8265L27.2594 35.6697L27.4109 36.2413L26.8837 37.2416L28.1929 37.4676L28.3233 39.503L30.1156 39.8079L31.2542 38.4795L32.6343 38.7634L33.1212 39.4431L34.4439 39.3659L34.4841 38.97L35.2125 39.3253L36.031 40.6269L37.4512 40.6441L37.9746 41.5673L38.0514 42.6972L39.6192 43.2959L41.5939 43.3188L42.1743 44.2729L43.0505 44.5568L42.8857 45.3485L41.9252 46.5768L41.6436 49.2996L40.7771 49.9928L39.4909 49.9521L39.0577 50.7036L39.3798 52.1173L37.9767 53.9227L37.5299 54.751L36.194 55.3942L35.3179 55.5293L35.2815 55.9077L35.893 56.0834L35.8221 56.4892L35.2681 57.0203L35.6035 57.4468L36.2687 57.4645L36.2323 57.9819L36.054 58.4897L35.9965 58.9029L36.9799 59.7352L36.8495 60.1679L35.5135 60.1449L34.1812 58.9745L33.1442 57.1382L33.2918 55.3691L32.5059 54.3108L32.8222 52.5244L32.3583 52.3933V48.5212C32.3583 48.5212 31.0491 47.5229 30.9782 47.5229C30.9015 47.5229 30.2862 47.3569 30.2862 47.3569L30.1558 46.6191L28.4536 44.4756L28.6243 43.7052L28.6779 42.4442L29.853 41.6155L29.6881 40.2057L27.9725 40.0746L26.6269 38.5297L25.6761 38.269L25.0589 38.157L25.1356 37.5893L24.3497 37.4772V37.7959L22.3925 37.3092L21.6009 36.0888L21.9191 35.5036L20.6808 33.6768L20.4661 32.3443H19.9619L20.1326 33.6401L20.9913 34.9765L20.8974 35.5036L20.169 35.3916L19.2757 33.8525V32.0604L18.9 31.8809C18.0873 34.1596 17.6406 36.616 17.6406 39.1786C17.6406 51.0723 27.2115 60.7105 39.0137 60.7105C45.7647 60.7105 51.7801 57.559 55.6983 52.6383V51.9416L54.8392 50.7751V48.9693L54.1876 48.3128L54.13 47.5556L54.9601 45.9569L53.3826 43.1568L53.5702 41.2525L52.1536 41.1077L51.6303 40.5766H50.6741L50.1908 41.0327H48.5118L48.4582 41.181H47.5205L45.3758 38.719L45.393 36.7975L45.7515 36.6662L45.8798 35.9323H45.3758L45.1706 35.1619L47.655 33.3562V32.0778L48.87 31.3981L49.3608 31.4483H50.3613L51.1434 31.0254L53.6643 30.8265V32.1222L55.6539 32.6301L56.0467 32.914H56.4132V32.2072L57.5613 32.0952L58.6519 32.914H59.4705C59.2789 32.271 59.0544 31.6395 58.8053 31.0273H58.7859L58.2015 30.3746L58.1035 29.4747L58.0464 29.3569L57.4884 29.662L57.1623 30.9365L56.2963 30.0096L56.2616 29.1271L55.4258 28.4029L55.1134 28.092H54.1397L54.4482 28.9649L55.6196 29.6214L55.8244 29.8377L55.5695 29.9632L55.5831 30.6565L55.0119 30.894L54.5286 30.7859L54.2201 30.3533L55.0119 30.3939L55.2263 30.1062L53.4744 28.9127L53.3404 28.4029L52.629 29.0556L51.9045 28.903L50.8002 30.3437L50.5858 30.9056L49.8841 30.9732L48.8431 30.9771L48.2223 30.6836L48.0382 29.436L48.2627 28.8413L49.3208 28.6076L50.4746 28.8413L50.6166 28.1982L50.1258 28.0804L50.2962 27.0801L51.458 26.8947L52.267 25.738L53.1102 25.5989L53.8655 25.7071L54.1415 25.7109L53.9903 24.6218L53.0702 25.0003L52.7481 24.1853L52.2112 24.1139L52.1097 23.5558L52.5469 23.0788L53.0161 22.8934C49.2553 19.6317 44.3635 17.6504 39.0098 17.6504ZM28.1872 20.6127C27.915 20.7749 27.6467 20.941 27.3821 21.1168L27.4492 21.1535L28.4019 21.3601L28.4786 21.7386L29.989 21.7927L29.784 21.306L28.4441 21.2655L28.7565 20.9719L28.6454 20.6127H28.1872ZM26.3739 21.8197L26.3374 21.8467L26.301 21.9916H26.1438C26.0327 22.0765 25.9196 22.1634 25.8084 22.2484V22.4821H26.9125L27.1444 22.1711V21.8197H26.3739ZM55.5928 25.595C55.4087 25.3652 55.2228 25.1451 55.029 24.925L54.3774 25.2629L54.475 25.5815L55.5928 25.595ZM26.5924 23.129C26.5924 23.129 27.0831 23.044 27.1291 23.044C27.1694 23.044 27.1291 23.5384 27.1291 23.5384L26.0212 23.6099L25.8103 23.353L26.5924 23.129ZM27.8824 25.7225L28.4728 25.4425L29.0038 25.568L28.8198 26.2883L28.2428 26.4737L27.8824 25.7225ZM31.0031 27.418V27.8815H29.6632L29.1591 27.7425L29.2837 27.418L29.9316 27.1477H30.8114V27.418H31.0031ZM31.6241 28.0669V28.5168L31.2887 28.737L30.8689 28.8142C30.8689 28.8142 30.8689 28.1383 30.8689 28.0669H31.6241ZM31.2446 27.8834V27.3485L31.7085 27.7714L31.2446 27.8834ZM31.4536 28.9668V29.4071L31.1315 29.7315H30.4204L30.5315 29.2371L30.867 29.2101L30.9379 29.0382L31.4536 28.9668ZM29.6747 28.0669H30.4165L29.4638 29.409L29.0747 29.1927L29.1591 28.6308L29.6747 28.0669ZM32.7129 28.8142V29.2507H32.0018L31.8043 28.9668V28.5574L31.858 28.5613L32.7129 28.8142ZM32.0573 28.2117L32.2586 27.9954L32.6018 28.2117L32.3296 28.4415L32.0573 28.2117Z" fill="#46689C"/>
</g>
<path d="M33.5049 47L28.554 33.7899L23.7384 47H23.3055L17.489 31.4571C17.0741 30.3328 16.7044 29.5833 16.3797 29.2086C16.0731 28.8151 15.6132 28.4965 15 28.2529V28C17.3627 28.1124 19.7525 28.1124 22.1693 28V28.2529C21.3036 28.4403 20.7534 28.7401 20.519 29.1523C20.2845 29.5646 20.3026 30.1923 20.5731 31.0355C21.547 33.8835 22.9719 37.6685 24.8476 42.3904H24.9017L28.2564 33.0591L27.7424 31.6538C27.2915 30.4546 26.9037 29.6489 26.5791 29.2367C26.2725 28.8057 25.8486 28.4778 25.3075 28.2529V28C27.9047 28.1124 30.2043 28.1124 32.2063 28V28.2529C31.3586 28.4403 30.8175 28.7307 30.5831 29.1242C30.3667 29.499 30.4117 30.1642 30.7184 31.1198C31.6021 33.8367 32.9999 37.5936 34.9117 42.3904H34.9658L38.4556 32.2721C38.8887 31.1292 38.9788 30.2298 38.7265 29.5739C38.4917 28.9181 37.8608 28.4778 36.8325 28.2529V28C38.5638 28.0937 40.2863 28.0937 42 28V28.2529C41.3146 28.4965 40.7461 28.9275 40.2955 29.5458C39.8625 30.1642 39.4659 31.0167 39.105 32.1035L33.9378 47H33.5049Z" fill="#46689C"/>
<path d="M43.8094 31L48.944 44.2101L53.9377 31H54.3867L60.4186 46.5429C60.849 47.6672 61.2324 48.4165 61.5688 48.7914C61.8871 49.185 62.364 49.5033 63 49.7469V50C60.5494 49.8873 58.0715 49.8873 55.5648 50V49.7469C56.463 49.5594 57.0334 49.2598 57.2764 48.8475C57.5194 48.4352 57.5007 47.8076 57.2203 46.9643C56.2104 44.1161 54.7328 40.3311 52.7874 35.6095H52.7313L49.2526 44.9407L49.7856 46.3459C50.2529 47.5454 50.655 48.3508 50.992 48.7631C51.3097 49.1941 51.7492 49.522 52.3105 49.7469V50C49.6174 49.8873 47.2324 49.8873 45.1562 50V49.7469C46.0352 49.5594 46.5964 49.2689 46.8394 48.8758C47.0642 48.5009 47.0172 47.8359 46.6995 46.8799C45.7826 44.1631 44.3332 40.4064 42.3504 35.6095H42.2944L38.6753 45.7279C38.2267 46.8708 38.1327 47.7702 38.3949 48.4261C38.6379 49.0819 39.2926 49.522 40.3585 49.7469V50C38.5631 49.906 36.7769 49.906 35 50V49.7469C35.7107 49.5033 36.2999 49.0723 36.7675 48.4539C37.2163 47.8359 37.628 46.983 38.0019 45.8962L43.3608 31H43.8094Z" fill="#46689C"/>
<path d="M29.5585 73.0149C28.6595 73.2951 27.8382 73.6165 27.1081 73.9645C26.3858 74.3287 25.7432 74.6967 25.2169 75.0876C25.083 75.1838 24.9548 75.2767 24.8286 75.3661C24.7102 75.4641 24.5956 75.5586 24.4869 75.6515C24.3762 75.7443 24.2714 75.832 24.1685 75.9177C24.0694 76.0067 23.9801 76.0979 23.8927 76.1818C23.7199 76.3548 23.549 76.5031 23.419 76.6566C23.285 76.8084 23.1666 76.9424 23.0617 77.0619C22.8326 77.3223 23.1374 77.4973 23.6481 77.5707C24.1588 77.6436 24.8441 77.6207 25.4558 77.5117C25.5296 77.4973 25.6092 77.4669 25.6907 77.424C25.7742 77.3812 25.8713 77.3332 25.9684 77.2688C26.0674 77.2048 26.1722 77.126 26.2849 77.0352C26.3994 76.9458 26.5315 76.8547 26.6693 76.7457C27.2227 76.3192 27.9838 75.7392 29.1469 75.1643C30.3002 74.5822 31.8671 74.0344 33.8457 73.5987C34.434 73.4668 35.0612 73.3451 35.7194 73.2293L33.6477 72.1152C32.1701 72.3527 30.7934 72.6418 29.5585 73.0149Z" fill="#46689C"/>
<path d="M76.7319 36.8029C76.4349 37.1278 76.0777 37.5205 75.7202 37.9686C75.5399 38.1935 75.3612 38.4308 75.1746 38.6809C74.9846 38.9306 74.7943 39.1948 74.6118 39.4699C74.1941 40.0927 73.8661 40.7889 73.5963 41.5066C73.6078 41.3675 73.6213 41.2264 73.631 41.0873C74.074 40.018 74.5554 39.0163 75.0096 37.9864C75.1649 37.6312 75.3261 37.2742 75.4757 36.91C75.6134 36.5459 75.7515 36.1746 75.8814 35.7943C75.9456 35.6033 76.0117 35.4105 76.068 35.216C76.1203 35.0214 76.1706 34.8232 76.2173 34.6215C76.3087 34.2199 76.4039 33.8022 76.458 33.372C76.5707 32.4491 76.4912 30.539 76.1688 28.8807C76.1087 28.4629 76.0076 28.0667 75.9299 27.7007C75.8445 27.3348 75.7765 26.9992 75.6989 26.7207C75.5399 26.1637 75.4388 25.8121 75.4388 25.8121C75.4388 25.8121 75.1357 26.2762 74.761 27.0474C74.5688 27.4347 74.3397 27.9006 74.1262 28.4219C74.0158 28.6825 73.9184 28.9556 73.806 29.2448C73.6933 29.534 73.5866 29.8339 73.4895 30.1445C73.4194 30.3641 73.363 30.5872 73.3186 30.8139C73.2641 31.0424 73.2193 31.2727 73.1865 31.5065C73.138 31.8332 73.1145 32.1634 73.0951 32.4955C73.0641 32.3455 73.0331 32.1956 73.0003 32.0456C73.0368 31.6582 73.0816 31.2763 73.1417 30.896C73.1865 30.514 73.2369 30.1338 73.2932 29.7536C73.3223 29.5625 73.3515 29.3733 73.3806 29.1823L73.4507 28.6147C73.497 28.2345 73.5478 27.8506 73.5866 27.4615C73.6138 27.0759 73.6369 26.685 73.6526 26.2851C73.6739 25.8835 73.6601 25.4818 73.6332 25.0713C73.6019 24.6607 73.5806 24.2323 73.497 23.8074C73.3477 22.8845 72.6875 21.0762 71.9109 19.55C71.7187 19.1679 71.5145 18.8091 71.3343 18.4735C71.241 18.3076 71.1536 18.1487 71.07 17.9987C70.9808 17.8524 70.8972 17.7167 70.8215 17.5917C70.5091 17.0919 70.3128 16.7777 70.3128 16.7777C70.3128 16.7777 70.1534 17.3007 70.0139 18.1379C69.9478 18.5539 69.8642 19.0591 69.806 19.616C69.7769 19.8945 69.7537 20.1855 69.7381 20.4871C69.7205 20.7888 69.6993 21.1083 69.6955 21.4314C69.6858 21.8902 69.7399 22.3472 69.8023 22.8167C69.837 23.0505 69.8799 23.2826 69.9344 23.5129C69.9672 23.6503 70.0023 23.7896 70.0351 23.927C70.0314 23.9199 70.0273 23.9109 70.0236 23.9038C69.9515 23.7664 69.8758 23.6325 69.8023 23.4986C69.5634 22.2936 69.4138 21.1334 69.2118 19.9677C69.0973 19.2019 68.9305 18.4539 68.7323 17.672C68.6293 17.2847 68.4975 16.9027 68.3594 16.5082C68.2897 16.3118 68.2139 16.1137 68.1344 15.9155C68.0489 15.7209 67.9556 15.5246 67.8605 15.3282C67.4664 14.4642 66.2818 12.9041 65.1014 11.617C64.7983 11.301 64.5072 10.9958 64.2393 10.7155C63.9676 10.4371 63.7033 10.2014 63.4858 9.99436C63.2667 9.78908 63.0861 9.62306 62.9618 9.50702C62.8375 9.38921 62.7617 9.33028 62.7617 9.33028C62.7617 9.33028 62.7655 9.4606 62.7752 9.70336C62.7871 9.94616 62.8121 10.2942 62.8625 10.7173C62.9696 11.5581 63.1521 12.7184 63.5093 13.9662C63.6294 14.4142 63.8082 14.8462 64.0142 15.2747C64.1986 15.6799 64.4139 16.0726 64.6509 16.451C64.5229 16.3172 64.3967 16.1868 64.2702 16.0583C64.2314 15.9887 64.1945 15.9173 64.1579 15.8459C63.9754 15.4853 63.7985 15.1319 63.622 14.782C63.4469 14.4321 63.288 14.0751 63.123 13.7234C62.9539 13.3717 62.7849 13.0237 62.618 12.6756C61.9287 11.285 61.1793 9.8676 59.9717 8.53591C59.657 8.16461 59.0939 7.688 58.4355 7.1614C58.1094 6.89542 57.7365 6.64551 57.3678 6.38132C57.1812 6.25101 56.9931 6.12248 56.8065 5.99217C56.6143 5.87078 56.4221 5.75118 56.234 5.63158C55.8533 5.39951 55.4902 5.1621 55.1427 4.97109C54.793 4.78008 54.4766 4.60515 54.2067 4.45698C53.9369 4.30882 53.7156 4.19101 53.5581 4.11782C53.401 4.04106 53.3137 4 53.3137 4C53.3137 4 53.3525 4.12853 53.4361 4.35523C53.5212 4.57837 53.6454 4.90861 53.8164 5.30847C53.9873 5.70655 54.203 6.17067 54.4669 6.66693C54.7233 7.17925 55.0259 7.72729 55.3835 8.27887C55.4805 8.43776 55.5854 8.59306 55.6958 8.74479C54.4825 7.77368 53.0494 6.85972 51.4786 6.25458C51.0069 6.05822 50.4963 5.92076 49.9895 5.78331C49.4827 5.64229 48.9583 5.55303 48.4459 5.4727C48.1895 5.43343 47.9373 5.39416 47.6846 5.3656C47.4323 5.34239 47.1819 5.32276 46.9389 5.30669C46.4519 5.27277 45.9876 5.24778 45.551 5.25849C45.1158 5.26206 44.7139 5.27456 44.3586 5.28884C43.9996 5.31561 43.685 5.34775 43.4267 5.37631C42.9083 5.43343 42.6094 5.47806 42.6094 5.47806C42.6094 5.47806 42.877 5.62087 43.3334 5.84222C43.5607 5.95111 43.8342 6.08142 44.1451 6.2278C44.4519 6.38489 44.7956 6.55447 45.1643 6.7312C46.6419 7.44702 48.4691 8.37349 50.2049 9.05004C51.6417 9.60343 53.1659 10.055 54.6087 10.5085C54.4105 10.4959 54.2127 10.4906 54.0183 10.4959C53.3465 10.537 52.7348 10.6298 52.197 10.7494C51.6495 10.8851 51.1778 11.044 50.7934 11.1939C50.409 11.3439 50.1078 11.4867 49.8981 11.6009C49.6906 11.7116 49.5797 11.7812 49.5797 11.7812C49.5797 11.7812 49.6536 11.8027 49.7857 11.8401C49.9194 11.8758 50.106 11.9365 50.3351 12.0133C50.5661 12.0883 50.8378 12.1757 51.139 12.2739C51.4417 12.3685 51.7581 12.4953 52.0981 12.6113C52.2672 12.6702 52.44 12.7309 52.6146 12.7898C52.7856 12.8559 52.9561 12.9219 53.1293 12.9897C53.4708 13.1254 53.8223 13.2397 54.1407 13.3717C54.7815 13.6306 55.3738 13.8359 55.7697 13.9626C57.2786 14.3821 58.727 14.6784 60.2045 15.089C60.5695 15.1961 60.9364 15.3086 61.3092 15.43C61.6765 15.5567 62.0355 15.7031 62.4023 15.8602C62.5848 15.9387 62.7714 16.019 62.9539 16.1083C63.1327 16.1993 63.3111 16.2958 63.4917 16.3957C63.5675 16.4385 63.6432 16.4832 63.7209 16.5278C63.8336 16.6438 63.9463 16.7652 64.0605 16.8866C63.688 16.6385 63.3014 16.41 62.9073 16.219C62.4665 16.0155 62.0064 15.8637 61.5522 15.7656C60.2452 15.5014 59.0823 15.5335 58.2415 15.646C57.8242 15.6977 57.4921 15.7638 57.2629 15.8155C57.0356 15.8655 56.9058 15.9102 56.9058 15.9102C56.9058 15.9102 56.9737 15.9459 57.0842 16.019C57.1969 16.0922 57.3618 16.1958 57.5619 16.3243C57.7619 16.4546 58.0067 16.5974 58.2627 16.7706C58.521 16.9437 58.8005 17.1329 59.092 17.3293C60.2471 18.1272 61.5384 19.1001 62.2374 19.5339C62.5751 19.7249 62.9054 19.9105 63.2297 20.0944C63.5559 20.2783 63.8974 20.4461 64.224 20.6228C64.8703 20.9798 65.5481 21.3154 66.1848 21.7046C67.185 22.2865 68.1594 22.9559 69.0409 23.8324C69.1111 23.9627 69.1809 24.0913 69.2488 24.2234C69.1633 24.127 69.0741 24.0323 68.9827 23.9413C68.814 23.7717 68.639 23.6075 68.4587 23.4557C68.1072 23.1452 67.6992 22.8899 67.2857 22.6864C66.9905 22.5436 66.7073 22.4151 66.4199 22.3097C66.1307 22.2062 65.8489 22.1187 65.5809 22.0455C65.045 21.8991 64.5617 21.8063 64.1344 21.7599C63.2936 21.6617 62.7677 21.6903 62.7677 21.6903C62.7677 21.6903 62.9674 21.9063 63.2839 22.2473C63.3637 22.3329 63.451 22.4257 63.5443 22.5257C63.6335 22.6292 63.7268 22.7382 63.8257 22.8524C64.0217 23.0827 64.2471 23.3272 64.4703 23.5896C65.3634 24.6357 66.2975 25.9013 66.8625 26.4815C67.1361 26.7457 67.3809 27.0135 67.6526 27.2652C67.9206 27.5186 68.1964 27.7668 68.4546 28.0185C68.7244 28.2702 68.9924 28.5183 69.2585 28.7664C69.5186 29.0199 69.7732 29.277 70.0333 29.5394L70.4214 29.9392C70.5438 30.0749 70.6644 30.2141 70.7845 30.3569C71.0253 30.6408 71.2641 30.9317 71.4933 31.2406C71.7011 31.5422 71.909 31.8564 72.1031 32.1884C72.1303 32.3223 72.1553 32.458 72.1826 32.5937C72.043 32.3152 71.8818 32.0456 71.7108 31.7903C71.5806 31.5994 71.4429 31.4155 71.2973 31.2406C71.1421 31.0692 70.979 30.9085 70.8081 30.7586C70.5651 30.5479 70.3225 30.3569 70.0818 30.182C69.8429 30.0088 69.5865 29.8571 69.3518 29.7197C68.8722 29.4483 68.4352 29.2394 68.0471 29.0877C67.2604 28.7878 66.742 28.6879 66.742 28.6879C66.742 28.6879 66.8741 28.9431 67.0838 29.3484C67.1906 29.5501 67.2954 29.7964 67.4235 30.0642C67.5477 30.3337 67.7011 30.6229 67.8254 30.9335C68.4001 32.1545 68.9032 33.6112 69.2895 34.3073C69.4682 34.6304 69.6313 34.9482 69.8198 35.2588C69.915 35.4141 70.0079 35.5694 70.1012 35.7229C70.1923 35.8782 70.2818 36.0317 70.371 36.1835C70.5576 36.4923 70.7439 36.7994 70.9282 37.1028C71.1051 37.4116 71.2761 37.7222 71.4507 38.04C71.94 38.9433 72.3748 39.9019 72.6524 40.9677C72.6409 41.1051 72.6312 41.2442 72.6177 41.3815C72.4778 40.6693 72.233 39.9875 71.8485 39.4038C71.6758 39.1413 71.4951 38.8967 71.3149 38.6703C71.1283 38.4435 70.9301 38.2364 70.742 38.0453C70.3595 37.6651 69.9982 37.3563 69.6683 37.1135C68.9984 36.6298 68.5285 36.4066 68.5285 36.4066C68.5285 36.4066 68.5808 36.6869 68.6644 37.1296C68.7091 37.3509 68.736 37.6151 68.7849 37.9061C68.8237 38.1971 68.8916 38.5147 68.9226 38.845C68.9596 39.1753 69.0118 39.5199 69.0469 39.8608C69.0838 40.2034 69.1208 40.5425 69.1555 40.8639C69.1827 41.1852 69.216 41.4905 69.2548 41.7618C69.2913 42.0349 69.3167 42.2723 69.3596 42.4635C69.6586 43.8825 70.0837 45.1984 70.3848 46.5889C70.5886 47.5492 70.7245 48.5472 70.6935 49.6092C70.6468 49.7305 70.602 49.8538 70.5535 49.9751C70.6099 49.2934 70.5576 48.6167 70.3692 47.999C70.1964 47.4118 69.9418 46.8781 69.6974 46.4228C69.4373 45.9641 69.1633 45.5749 68.9189 45.2624C68.6759 44.95 68.443 44.7091 68.2837 44.5502C68.1225 44.3895 68.0254 44.3056 68.0254 44.3056C68.0254 44.3056 67.9963 44.5879 67.9478 45.0339C67.9187 45.2573 67.8858 45.5214 67.847 45.8123C67.8101 46.1031 67.7519 46.4173 67.7052 46.7476C67.5985 47.4047 67.4682 48.1097 67.3458 48.7452C67.2936 49.0666 67.2256 49.3629 67.1809 49.6342C67.1361 49.9039 67.107 50.1464 67.0838 50.3376C66.9614 51.7761 66.9924 53.1527 66.8722 54.5611C66.7905 55.4963 66.6431 56.4515 66.3326 57.4244C66.2527 57.5296 66.1769 57.6351 66.0974 57.7386C66.1598 57.569 66.2158 57.3977 66.2665 57.2298C66.3885 56.7923 66.4471 56.3463 66.4527 55.9177C66.4449 55.3017 66.3751 54.7378 66.2605 54.2325C66.1422 53.7255 65.9985 53.2883 65.8508 52.9259C65.5462 52.1975 65.2686 51.7854 65.2686 51.7854C65.2686 51.7854 65.1577 52.0495 64.9812 52.4671C64.7946 52.8813 64.5479 53.4541 64.2471 54.0578C64.1071 54.3647 63.9441 54.6751 63.7869 54.9841C63.6354 55.2983 63.4723 55.6018 63.3208 55.8927C63.2473 56.039 63.1752 56.1819 63.1073 56.3192C63.0353 56.4549 62.9674 56.5837 62.9054 56.7084C62.7793 56.9547 62.6841 57.1832 62.6083 57.3638C62.0743 58.7205 61.6977 60.0483 61.1696 61.3766C60.8315 62.2262 60.4277 63.0779 59.8765 63.9059C59.7735 63.9847 59.6705 64.0632 59.5678 64.1399C59.6492 64.0255 59.7287 63.9097 59.8045 63.7953C60.0493 63.4027 60.2374 62.9885 60.3695 62.578C60.721 61.391 60.7367 60.3162 60.6628 59.5468C60.5833 58.7722 60.4355 58.3063 60.4355 58.3063C60.4355 58.3063 60.2512 58.5327 59.9578 58.89C59.816 59.0737 59.6298 59.2737 59.4357 59.5057C59.3365 59.6201 59.2338 59.7414 59.129 59.8647C59.02 59.986 58.9054 60.111 58.7908 60.2378C58.6763 60.3663 58.5598 60.4964 58.4415 60.6287L58.0765 61.0158C57.956 61.1463 57.8358 61.2765 57.7171 61.405C57.5969 61.5301 57.4764 61.6551 57.3618 61.7747C57.2472 61.8977 57.1368 62.0172 57.03 62.1316C56.9229 62.244 56.8203 62.353 56.721 62.4547C56.5288 62.6616 56.368 62.8528 56.2456 63.01C55.3331 64.181 54.5777 65.3609 53.6768 66.5052C53.1192 67.2102 52.5079 67.8992 51.7678 68.533C51.7563 68.5385 51.7447 68.5419 51.7331 68.5474C51.8921 68.3884 52.038 68.2205 52.1601 68.042C52.2866 67.8635 52.3989 67.685 52.4982 67.512C52.5952 67.3335 52.6807 67.1585 52.7542 66.9906C52.902 66.6552 53.0087 66.3479 53.0804 66.0855C53.2204 65.5517 53.2435 65.2091 53.2435 65.2091C53.2435 65.2091 53.061 65.327 52.7718 65.511C52.4766 65.6895 52.0746 65.9337 51.6436 66.1944C50.7837 66.707 49.7622 67.2602 49.2845 67.5956C49.0673 67.7601 48.8553 67.919 48.646 68.0777C48.4381 68.2383 48.2362 68.4045 48.0362 68.5724C47.6282 68.8899 47.2382 69.2363 46.8206 69.5505C46.4575 69.8362 46.0791 70.1092 45.673 70.3645C44.8012 70.5519 43.9354 70.7125 43.0848 70.8499C42.9684 70.8698 42.852 70.8859 42.7355 70.9037L44.5179 71.8623C44.8441 71.7996 45.1722 71.7338 45.5021 71.6694C45.648 71.6372 45.7936 71.605 45.9391 71.5731C46.4575 71.6355 46.9662 71.7105 47.4771 71.7766C48.044 71.8623 48.6109 71.9174 49.2032 71.9692C49.4961 71.987 49.7954 71.9962 50.1022 71.9996C50.409 72.0051 50.7214 71.9942 51.0397 71.9657C51.7313 71.9191 53.0923 71.5855 54.2668 71.1928C54.8494 70.9983 55.3794 70.7965 55.7697 70.6485C56.1541 70.4878 56.3971 70.3878 56.3971 70.3878C56.3971 70.3878 56.0261 70.2466 55.4163 70.0966C55.1095 70.0164 54.7427 69.9307 54.3329 69.8574C54.1291 69.8201 53.9134 69.7879 53.6902 69.7574C53.4629 69.7235 53.2282 69.695 52.9856 69.6738C52.7274 69.6522 52.4613 69.6505 52.1952 69.6594C52.2127 69.6522 52.228 69.645 52.2455 69.6399C53.3096 69.5433 54.3467 69.4771 55.3913 69.3881C57.0532 69.2418 58.7483 69.0256 60.5173 68.4007C60.7539 68.3171 61.0413 68.1904 61.3656 68.0366C61.5268 67.9598 61.6996 67.8779 61.8761 67.7868C62.0512 67.6905 62.2318 67.5905 62.418 67.4887C62.6042 67.3832 62.7946 67.2746 62.989 67.164C63.179 67.0495 63.3716 66.9266 63.5638 66.8049C63.756 66.6819 63.9482 66.5586 64.1404 66.4356C64.3266 66.3051 64.5132 66.1766 64.6957 66.0499C64.8782 65.9214 65.0566 65.7946 65.2294 65.6713C65.4003 65.5466 65.5615 65.4198 65.719 65.3003C66.0277 65.0591 66.3188 64.845 66.546 64.6469C67.0081 64.2578 67.3014 64.0094 67.3014 64.0094C67.3014 64.0094 66.711 63.9827 65.7907 64.0382C64.8644 64.0899 63.5985 64.204 62.2258 64.4719C61.5772 64.5986 60.9289 64.7987 60.296 65.0413C60.4027 64.9611 60.5094 64.8772 60.6143 64.7949C61.6451 64.413 62.6569 64.0772 63.6724 63.7151C65.2275 63.158 66.7886 62.5243 68.305 61.4838C68.5128 61.3461 68.7457 61.1498 69.0137 60.923C69.1458 60.8072 69.2857 60.6838 69.4313 60.5554C69.5731 60.4231 69.7168 60.2806 69.8642 60.134C70.1613 59.8414 70.4722 59.5255 70.7651 59.1915C71.0641 58.8613 71.3634 58.5238 71.6332 58.1846C72.1904 57.5173 72.6603 56.8602 73.004 56.3802C73.3339 55.891 73.5418 55.5803 73.5418 55.5803C73.5418 55.5803 72.967 55.6998 72.099 55.9821C71.6623 56.1212 71.1398 56.2942 70.5845 56.5121C70.0254 56.7283 69.4119 56.978 68.7924 57.2799C68.1654 57.5796 67.5671 57.9616 66.9965 58.3847C67.0801 58.2758 67.1633 58.1668 67.2451 58.0562C68.1557 57.4066 69.0626 56.8156 69.9635 56.1945C71.2992 55.275 72.6118 54.2753 73.7709 52.9026C73.9322 52.7206 74.1031 52.4743 74.293 52.1886C74.4796 51.9012 74.6913 51.5781 74.8835 51.2194C75.2873 50.5089 75.6836 49.6894 76.0195 48.9076C76.1804 48.515 76.3434 48.1364 76.4737 47.7829C76.5998 47.4279 76.7163 47.1045 76.8137 46.8315C76.9107 46.5585 76.9727 46.3299 77.023 46.1747C77.0716 46.0175 77.0969 45.9301 77.0969 45.9301C77.0969 45.9301 76.9689 45.9925 76.7454 46.1175C76.5203 46.2426 76.2136 46.43 75.8251 46.6708C75.4388 46.912 74.9962 47.2083 74.5244 47.5544C74.0352 47.8973 73.5399 48.2954 73.0156 48.7325C72.4718 49.2005 71.9807 49.7483 71.538 50.3304C71.5866 50.2071 71.6313 50.0841 71.6776 49.9607C72.3904 49.0738 73.1223 48.2526 73.837 47.4009C74.8465 46.1837 75.8273 44.902 76.5457 43.297C76.6386 43.0811 76.7495 42.8043 76.8465 42.483C76.9417 42.1616 77.0387 41.7957 77.1358 41.4048C77.2253 41.0139 77.3007 40.598 77.3806 40.1749C77.4563 39.7518 77.5049 39.3215 77.5631 38.9056C77.6232 38.4897 77.6388 38.0846 77.6717 37.7133C77.6971 37.342 77.7299 37.0028 77.734 36.7155C77.7415 36.1407 77.7474 35.7765 77.7474 35.7765C77.7474 35.7765 77.3183 36.1531 76.7319 36.8029ZM73.8157 38.1221C73.8291 37.8918 73.862 37.5651 73.903 37.1688C73.9303 36.9707 73.934 36.7583 73.9534 36.5316C73.9669 36.3049 73.9982 36.0674 74.0195 35.8175C74.0329 35.6944 74.0467 35.5676 74.062 35.4391C74.0717 35.3124 74.0814 35.182 74.0911 35.0517C74.1105 34.7911 74.1359 34.5251 74.1613 34.2591C74.1747 34.1253 74.1863 33.9914 74.2001 33.8593C74.208 33.7272 74.2154 33.5951 74.2251 33.463C74.2389 33.1988 74.2621 32.94 74.293 32.69C74.3729 32.192 74.4446 31.7368 74.5416 31.3494C74.639 30.9639 74.7439 30.6461 74.829 30.4337C74.8659 30.3266 74.9047 30.2463 74.9301 30.1909C74.9555 30.1373 74.9689 30.1088 74.9689 30.1088L75.0234 30.1356C75.0234 30.1356 75.029 30.2766 75.0253 30.5158C75.0212 30.6354 75.0156 30.78 75.0096 30.946C75.0018 31.1085 74.9943 31.2959 74.9846 31.4958C74.9786 31.6975 74.963 31.9117 74.9495 32.1402C74.9282 32.3687 74.8991 32.6079 74.8659 32.8525C74.8331 33.0971 74.7864 33.3452 74.7439 33.5987C74.7028 33.8504 74.6427 34.111 74.6002 34.3698C74.5028 34.8875 74.439 35.4034 74.3378 35.8872C74.2468 36.3727 74.1807 36.8208 74.099 37.2063C74.0232 37.5901 73.9594 37.9114 73.9165 38.1382C73.8739 38.363 73.8486 38.4897 73.8486 38.4897L73.7941 38.4791C73.7903 38.4825 73.8 38.3506 73.8157 38.1221ZM71.0622 21.3832C71.0682 21.2708 71.0816 21.1833 71.0894 21.1244C71.0992 21.0655 71.1033 21.0352 71.1033 21.0352L71.1633 21.0477C71.1633 21.0477 71.2059 21.1833 71.2761 21.4136C71.3126 21.5261 71.3477 21.6689 71.3906 21.8313C71.4294 21.9902 71.4757 22.174 71.5242 22.3686C71.5769 22.565 71.6235 22.7756 71.6776 22.9988C71.734 23.2201 71.7672 23.4611 71.8079 23.7039C71.8467 23.9484 71.8739 24.2001 71.9068 24.4536C71.94 24.7071 71.9672 24.9695 71.9963 25.2301C72.0505 25.7532 72.1419 26.2655 72.1867 26.7582C72.2408 27.2491 72.3068 27.6971 72.3401 28.0898C72.3789 28.479 72.4117 28.8039 72.4352 29.0324C72.4584 29.2591 72.4718 29.3894 72.4718 29.3894L72.4158 29.3912C72.4158 29.3912 72.3863 29.2627 72.336 29.0377C72.2818 28.8128 72.2177 28.4897 72.1419 28.0988C72.1109 27.9024 72.0527 27.6954 72.0042 27.4722C71.9516 27.2491 71.9109 27.0135 71.8605 26.7689C71.8176 26.5226 71.7612 26.2709 71.703 26.0156C71.6466 25.7585 71.5925 25.4979 71.5418 25.2337C71.4914 24.9695 71.4294 24.7089 71.3671 24.4518C71.3029 24.1948 71.2525 23.9377 71.21 23.6896C71.1749 23.4397 71.1398 23.2023 71.1107 22.9774C71.0835 22.7506 71.0663 22.5364 71.0566 22.3383C71.0409 21.9366 71.0469 21.6064 71.0622 21.3832ZM64.8103 13.2397C64.8103 13.2397 64.8879 13.361 65.0219 13.5663C65.0879 13.6681 65.1674 13.793 65.2566 13.9358C65.3439 14.0769 65.4414 14.2447 65.5403 14.4214C65.6451 14.5999 65.75 14.7909 65.8646 14.9944C65.9769 15.1979 66.0993 15.4068 66.2005 15.6371C66.3072 15.8637 66.4042 16.1012 66.5072 16.3404C66.6061 16.5813 66.7226 16.817 66.8237 17.0633C67.0275 17.556 67.2507 18.0344 67.4507 18.4878C67.6451 18.943 67.8276 19.3679 67.9848 19.7338C68.1344 20.0998 68.2606 20.405 68.3479 20.621C68.4352 20.8352 68.4856 20.9566 68.4856 20.9566L68.4333 20.9727C68.4333 20.9727 68.3692 20.8549 68.2546 20.6514C68.1363 20.4496 67.9907 20.148 67.7944 19.7927C67.6974 19.616 67.5906 19.425 67.4779 19.2233C67.3634 19.0216 67.2585 18.802 67.1402 18.5771C66.8954 18.1362 66.6352 17.6613 66.3867 17.1776C66.2527 16.9402 66.1187 16.7045 65.9866 16.4707C65.853 16.2368 65.7325 15.9994 65.6179 15.7727C65.3869 15.3229 65.21 14.8873 65.0782 14.5089C64.9517 14.1268 64.845 13.8216 64.8024 13.5967C64.7752 13.486 64.7655 13.3985 64.7558 13.3396C64.7479 13.2807 64.7442 13.2486 64.7442 13.2486L64.8103 13.2397ZM56.4281 7.26137C56.4281 7.26137 56.5385 7.36133 56.7251 7.52914C56.8162 7.61304 56.9289 7.71479 57.0569 7.83083C57.1793 7.94864 57.3308 8.07359 57.4764 8.22176C57.6279 8.36811 57.7832 8.53057 57.9522 8.70015C58.1191 8.86974 58.2919 9.04826 58.4628 9.23569C58.6374 9.41956 58.7931 9.63375 58.9618 9.83903C59.1271 10.0479 59.3017 10.2532 59.4745 10.4603C59.8239 10.8708 60.1597 11.2993 60.49 11.6812C60.8199 12.0633 61.1036 12.4453 61.3618 12.7541C61.622 13.0611 61.8276 13.3289 61.9735 13.5163C62.1172 13.702 62.2004 13.8091 62.2004 13.8091L62.1538 13.8377C62.1538 13.8377 62.059 13.7395 61.8918 13.5681C61.8063 13.4824 61.7074 13.3771 61.5929 13.2557C61.4746 13.1379 61.3424 13.004 61.1969 12.8576C61.0532 12.7095 60.8976 12.5506 60.7326 12.381C60.649 12.2971 60.5677 12.2079 60.4822 12.115C60.3949 12.0276 60.3057 11.9365 60.2142 11.8455C60.0336 11.6598 59.8492 11.4671 59.6589 11.2725C59.5656 11.1725 59.4704 11.0725 59.3775 10.9726L59.0842 10.6798C58.8882 10.4817 58.6919 10.2835 58.4997 10.089C58.3075 9.89083 58.1191 9.69802 57.9366 9.51237C57.5854 9.13394 57.298 8.74479 57.055 8.41991C56.8143 8.095 56.6318 7.81298 56.5251 7.60766C56.4669 7.50773 56.4318 7.42381 56.4068 7.36847C56.3833 7.31314 56.3698 7.28279 56.3698 7.28279L56.4281 7.26137ZM52.5292 8.70731C52.265 8.5895 52.0164 8.47346 51.7817 8.35921C51.5428 8.25211 51.3174 8.15214 51.108 8.05217C50.6885 7.8558 50.3351 7.66302 50.0362 7.52376C49.4439 7.23281 49.1214 7.03466 49.1214 7.03466C49.1214 7.03466 49.5002 7.08286 50.1623 7.22745C50.4963 7.2935 50.8863 7.41489 51.339 7.55949C51.5641 7.63267 51.8048 7.71301 52.0552 7.80582C52.3019 7.90578 52.562 8.01648 52.83 8.13429C53.9134 8.60018 55.2125 9.35885 56.3542 10.1015C57.488 10.8566 58.459 11.6063 58.9733 12.0008C58.4318 11.6366 57.36 11.0172 56.1523 10.3942C54.9349 9.78726 53.5895 9.1643 52.5292 8.70731ZM61.3674 14.6177C61.3674 14.6177 61.251 14.5517 61.0454 14.4357C60.8412 14.3178 60.552 14.1536 60.1889 13.9823C59.8257 13.8109 59.4163 13.6038 58.9562 13.4164C58.4919 13.2343 58.0123 13.0344 57.5133 12.8808C57.2629 12.8041 57.0144 12.7309 56.7695 12.6684C56.5232 12.6059 56.29 12.5381 56.0534 12.4846C55.8201 12.4274 55.5951 12.3667 55.3853 12.3078C55.1737 12.2489 54.9755 12.1972 54.793 12.1418C54.6087 12.0972 54.4359 12.0544 54.2844 12.0186C54.1328 11.9812 54.0007 11.949 53.8921 11.9223C53.6745 11.8687 53.5465 11.8366 53.5465 11.8366L53.5406 11.783C53.5406 11.783 53.5719 11.7777 53.6283 11.767C53.6865 11.7562 53.772 11.7402 53.8824 11.733C54.1037 11.708 54.4262 11.7045 54.8222 11.7259C55.2144 11.7527 55.6649 11.833 56.1523 11.9544C56.3948 12.0186 56.6456 12.0954 56.8882 12.1954C57.1349 12.29 57.3853 12.3846 57.6358 12.4863L58.0105 12.6363C58.131 12.6916 58.253 12.7488 58.3717 12.8041C58.6106 12.9183 58.8453 13.0326 59.0745 13.1415C59.1872 13.1986 59.2999 13.2539 59.4085 13.3093C59.5152 13.3682 59.6182 13.4253 59.7171 13.486C59.9172 13.6056 60.1056 13.7181 60.2784 13.8216C60.4512 13.9287 60.6124 14.0251 60.7483 14.1143C60.8841 14.2072 61.0006 14.2893 61.0939 14.3589C61.2861 14.4964 61.3947 14.5749 61.3947 14.5749L61.3674 14.6177ZM67.4507 21.5314C67.4507 21.5314 67.3555 21.4404 67.1906 21.2797C67.0237 21.1191 66.7927 20.8906 66.5013 20.6299C66.2005 20.3765 65.847 20.0873 65.4723 19.7838C65.0857 19.4893 64.6587 19.1965 64.2355 18.9163C64.0239 18.777 63.7966 18.6521 63.5791 18.5307C63.3596 18.4093 63.1443 18.295 62.9424 18.1772C62.7423 18.0576 62.5363 17.9523 62.3501 17.8434C62.1616 17.7363 61.9832 17.6399 61.822 17.5435C61.657 17.456 61.5134 17.3596 61.3753 17.2936C61.2394 17.2222 61.1189 17.1597 61.02 17.108C60.8241 17.0044 60.7095 16.9437 60.7095 16.9437L60.7173 16.892C60.7173 16.892 60.7483 16.8937 60.8084 16.8973C60.8666 16.9009 60.9558 16.9062 61.0648 16.9241C61.2842 16.9562 61.6085 17.0205 61.9713 17.1472C62.3344 17.2757 62.7558 17.4543 63.1928 17.6881C63.4044 17.8131 63.6141 17.9541 63.8257 18.104C64.0374 18.254 64.2549 18.4039 64.4684 18.5628C64.8819 18.8841 65.2898 19.2215 65.6664 19.5464C65.8433 19.7178 66.0217 19.8766 66.1792 20.0391C66.3382 20.2015 66.4897 20.3551 66.6296 20.4961C66.8995 20.787 67.1092 21.0387 67.2566 21.2173C67.404 21.3957 67.4876 21.4957 67.4876 21.4957L67.4507 21.5314ZM71.3029 29.6875C71.3029 29.6875 71.2369 29.5768 71.1227 29.3823C71.0081 29.1877 70.845 28.911 70.645 28.5879C70.4431 28.2648 70.171 27.9042 69.8993 27.5222C69.6295 27.1384 69.2876 26.7564 68.9614 26.3833C68.7946 26.1976 68.6315 26.0138 68.4468 25.8478C68.2684 25.6782 68.0915 25.5175 67.9284 25.3551C67.7634 25.1944 67.6179 25.032 67.4626 24.8838C67.3111 24.7357 67.1656 24.6 67.0353 24.4679C66.9051 24.3411 66.783 24.2215 66.6759 24.118C66.5692 24.0127 66.4781 23.9217 66.3945 23.8485C66.2333 23.7021 66.1381 23.6164 66.1381 23.6164L66.1616 23.5682C66.1616 23.5682 66.1907 23.5771 66.2471 23.595C66.3035 23.6128 66.3867 23.6396 66.4878 23.6843C66.6994 23.7646 66.973 23.9145 67.2895 24.1252C67.447 24.2305 67.616 24.3519 67.7907 24.4875C67.9653 24.6232 68.1441 24.7731 68.3109 24.9445C68.4759 25.1177 68.6431 25.3015 68.8062 25.4997C68.9693 25.6943 69.1402 25.8906 69.2857 26.1013C69.4391 26.3066 69.5925 26.5154 69.7399 26.7225C69.8896 26.9296 70.0314 27.1366 70.1535 27.3437C70.2759 27.5507 70.402 27.7489 70.511 27.9435C70.6158 28.1381 70.7282 28.3201 70.8099 28.4951C70.9767 28.845 71.1167 29.1359 71.204 29.343C71.2955 29.5501 71.3477 29.6679 71.3477 29.6679L71.3029 29.6875ZM72.6312 38.4969C72.6312 38.4969 72.6002 38.3739 72.5457 38.1578C72.4934 37.9418 72.4158 37.6348 72.3165 37.2742C72.2158 36.9136 72.0583 36.4994 71.9068 36.0621C71.7594 35.6247 71.544 35.1731 71.3361 34.7322C71.2253 34.5126 71.1301 34.2948 71.0003 34.0896C70.8778 33.8825 70.7536 33.6826 70.6427 33.4862C70.5322 33.2898 70.4292 33.0988 70.3359 32.9168C70.2333 32.7365 70.1363 32.5686 70.0448 32.4116C69.9557 32.2581 69.872 32.1117 69.7982 31.9867C69.7265 31.86 69.6623 31.7493 69.6101 31.6582C69.4974 31.478 69.4313 31.3708 69.4313 31.3708L69.4682 31.3298C69.4682 31.3298 69.4955 31.3459 69.544 31.3762C69.5925 31.4084 69.6664 31.453 69.7515 31.5208C69.9265 31.6511 70.1419 31.8653 70.3923 32.1438C70.633 32.4259 70.9148 32.7739 71.1342 33.1845C71.2447 33.3916 71.3514 33.6112 71.4507 33.8396C71.5011 33.9539 71.5515 34.0699 71.6022 34.1842C71.6466 34.302 71.6896 34.4198 71.734 34.5376C71.8235 34.7733 71.909 35.0107 71.9922 35.2481C72.0333 35.3659 72.0721 35.4837 72.1128 35.6015C72.1456 35.7194 72.177 35.8354 72.2098 35.9496C72.268 36.1799 72.3322 36.4013 72.3789 36.6155C72.4233 36.8297 72.4796 37.0314 72.5069 37.2206C72.567 37.5991 72.6155 37.9132 72.639 38.1364C72.6662 38.3578 72.6815 38.4846 72.6815 38.4846L72.6312 38.4969ZM70.639 40.8211C70.5964 40.6498 70.5554 40.4891 70.5188 40.35C70.4837 40.2089 70.4528 40.0876 70.4274 39.9858C70.3789 39.784 70.3457 39.6645 70.3457 39.6645L70.3923 39.634C70.3923 39.634 70.4139 39.6556 70.4528 39.6984C70.4916 39.7412 70.5479 39.8019 70.6061 39.8892C70.7323 40.0571 70.8875 40.3178 71.0488 40.6481C71.2137 40.98 71.3477 41.3815 71.4623 41.8334C71.5168 42.0599 71.5537 42.2973 71.5787 42.5436C71.606 42.7882 71.6369 43.0366 71.6582 43.2864C71.6877 43.7828 71.7205 44.2895 71.7071 44.7609C71.6974 44.9983 71.6974 45.2268 71.6817 45.4447C71.672 45.6643 71.6448 45.8678 71.6254 46.0569C71.5769 46.4372 71.5477 46.7548 71.4992 46.9726C71.4563 47.1922 71.4332 47.3169 71.4332 47.3169L71.3768 47.3152C71.3768 47.3152 71.3847 47.1905 71.4003 46.9689C71.4216 46.7496 71.4197 46.4334 71.4253 46.0603C71.4332 45.689 71.4078 45.2535 71.3809 44.7931C71.3593 44.3361 71.2835 43.8468 71.2137 43.372C71.1768 43.1346 71.1204 42.8972 71.0663 42.6687C71.0118 42.4402 70.9573 42.2188 70.9051 42.001C70.8506 41.7851 70.8002 41.5744 70.7573 41.3764C70.7207 41.1818 70.6778 40.9961 70.639 40.8211ZM67.7537 55.1859C67.8276 54.9752 67.9284 54.6734 68.043 54.3164C68.1557 53.9595 68.2546 53.5309 68.3692 53.0848C68.4643 52.6312 68.5576 52.153 68.6158 51.6727C68.6412 51.4318 68.6662 51.1927 68.6778 50.9604C68.6972 50.7285 68.6972 50.4983 68.7091 50.2769C68.7207 50.0553 68.736 49.8429 68.7554 49.6414C68.773 49.4396 68.7752 49.2468 68.7905 49.07C68.8002 48.8953 68.8099 48.7325 68.8177 48.59C68.8293 48.4472 68.8312 48.3204 68.8334 48.2169C68.839 48.0097 68.8409 47.8867 68.8409 47.8867L68.8954 47.8689C68.8954 47.8689 68.9092 47.8956 68.9342 47.9436C68.9577 47.9936 68.9965 48.0669 69.0294 48.1652C69.0682 48.2615 69.107 48.3828 69.1458 48.5239C69.179 48.6647 69.2119 48.8254 69.2391 49.0022C69.2913 49.3574 69.3302 49.7877 69.2954 50.2465C69.276 50.4767 69.2507 50.7179 69.2063 50.9604C69.1596 51.2016 69.113 51.4479 69.0603 51.6942C68.9674 52.1886 68.8177 52.6706 68.6875 53.1311C68.6099 53.3562 68.5401 53.5758 68.4606 53.781C68.3789 53.9862 68.3109 54.1845 68.2333 54.3593C68.0762 54.7128 67.9459 55.0074 67.8448 55.2109C67.744 55.4144 67.6817 55.5268 67.6817 55.5268L67.6295 55.5107C67.6295 55.5124 67.6742 55.3946 67.7537 55.1859ZM61.6802 62.4085C61.7171 62.3601 61.7716 62.2906 61.8373 62.196C61.9694 62.0104 62.1579 61.7479 62.3714 61.4317C62.5811 61.1124 62.8065 60.7284 63.045 60.3269C63.2644 59.9092 63.5033 59.479 63.6936 59.0274C63.7888 58.8023 63.8821 58.5793 63.9635 58.358C64.0471 58.1384 64.1131 57.9133 64.1926 57.7047C64.2684 57.494 64.3501 57.296 64.4236 57.1048C64.4957 56.9119 64.5576 56.73 64.6237 56.5638C64.6841 56.398 64.7423 56.2445 64.7909 56.1089C64.8375 55.9712 64.8782 55.8499 64.911 55.7498C64.9771 55.5518 65.0178 55.4357 65.0178 55.4357L65.076 55.4323C65.076 55.4323 65.082 55.4607 65.0898 55.5141C65.0976 55.5679 65.1129 55.6481 65.117 55.7498C65.1323 55.9533 65.1323 56.2569 65.0782 56.6104C65.02 56.9619 64.9401 57.3905 64.7714 57.8225C64.686 58.0384 64.589 58.2634 64.4762 58.4882C64.3635 58.7115 64.2452 58.9346 64.1228 59.1576C63.8899 59.6112 63.6063 60.0394 63.3443 60.4481C63.2085 60.6499 63.0722 60.8411 62.9364 61.0196C62.7987 61.1981 62.6725 61.3677 62.5483 61.5211C62.2919 61.823 62.0803 62.0727 61.9228 62.2423C61.847 62.3297 61.7832 62.3958 61.7403 62.4386C61.6977 62.4831 61.6742 62.5064 61.6742 62.5064L61.6279 62.478C61.6238 62.4814 61.6432 62.4564 61.6802 62.4085ZM54.0787 67.4637C54.2612 67.3192 54.5195 67.114 54.8203 66.8656C55.1136 66.6069 55.4495 66.3017 55.7951 65.9714C56.1291 65.625 56.4881 65.2735 56.8028 64.8844C56.9621 64.6915 57.1174 64.5003 57.2611 64.3095C57.4006 64.1149 57.5387 63.9237 57.6727 63.7381C57.8104 63.5578 57.9425 63.3848 58.0705 63.2187C58.1967 63.0508 58.3094 62.8922 58.4221 62.7476C58.5251 62.601 58.6337 62.4725 58.7154 62.3512C58.8005 62.23 58.8744 62.1244 58.9368 62.0371C59.0588 61.8637 59.1308 61.7603 59.1308 61.7603L59.1872 61.7709C59.1872 61.7709 59.1831 61.7997 59.1775 61.8531C59.1696 61.9066 59.1599 61.9871 59.1345 62.0871C59.0879 62.2868 59.0006 62.5797 58.8453 62.9062C58.6841 63.2293 58.4822 63.6205 58.193 63.9953C58.0455 64.1827 57.8862 64.3718 57.7134 64.5613C57.5425 64.7504 57.36 64.9323 57.1756 65.118C56.8162 65.4949 56.4184 65.8392 56.0437 66.1643C55.8552 66.3267 55.6667 66.473 55.4824 66.6121C55.298 66.7498 55.1233 66.88 54.9621 66.9995C54.6262 67.2246 54.3467 67.412 54.1444 67.535C53.9447 67.6635 53.8261 67.7296 53.8261 67.7296L53.7891 67.6905C53.7891 67.6868 53.8981 67.61 54.0787 67.4637ZM46.9139 70.2466C47.0613 70.1736 47.2748 70.077 47.5178 69.9431C47.7622 69.8095 48.0421 69.6505 48.337 69.4809C48.6266 69.2987 48.9311 69.1061 49.2244 68.9078C49.37 68.8098 49.5099 68.6971 49.6421 68.5902C49.776 68.4812 49.9041 68.374 50.0339 68.2777C50.166 68.1832 50.2944 68.092 50.4165 68.0047C50.5389 67.919 50.6535 67.8351 50.7662 67.7635C50.8729 67.6885 50.9778 67.6244 51.0651 67.5638C51.1584 67.5066 51.236 67.4548 51.3002 67.4082C51.432 67.3209 51.5118 67.2691 51.5118 67.2691L51.5622 67.2942C51.5622 67.2942 51.5409 67.3743 51.4749 67.5083C51.4107 67.6457 51.2942 67.8262 51.1233 68.0242C50.9524 68.2222 50.7311 68.4456 50.4594 68.6563C50.3176 68.7543 50.166 68.8505 50.0048 68.9417C49.844 69.0345 49.6809 69.1274 49.5178 69.2219C49.1894 69.4025 48.8516 69.5738 48.5273 69.7255C48.3642 69.7985 48.2071 69.8663 48.0518 69.927C47.8984 69.988 47.7525 70.0448 47.6185 70.0966C47.3487 70.2021 47.1196 70.2733 46.9583 70.3233C46.7975 70.3734 46.7061 70.4018 46.7061 70.4018L46.6807 70.3573C46.6807 70.361 46.7661 70.3199 46.9139 70.2466ZM52.2437 70.4323C52.5426 70.4573 52.7856 70.4857 52.9505 70.5217C53.1155 70.5556 53.2047 70.5895 53.2047 70.5895L53.1875 70.643C53.1875 70.643 53.0804 70.6697 52.9039 70.7142C52.8166 70.7358 52.7098 70.7591 52.5855 70.7821C52.4631 70.8037 52.3254 70.8321 52.1776 70.8554C52.0283 70.8838 51.869 70.9054 51.6999 70.9321C51.5331 70.9606 51.3543 70.9784 51.1718 70.9893C50.9893 71 50.8012 71.0034 50.6087 71.0054C50.4165 71.0054 50.2243 71.0216 50.0283 71.0216C49.6361 71.0322 49.2476 71.0555 48.8826 71.0733C48.5176 71.0873 48.1761 71.1 47.8828 71.1106C47.5917 71.1267 47.345 71.1301 47.1741 71.1391C47.0031 71.1445 46.9042 71.148 46.9042 71.148L46.9024 71.0962C46.9024 71.0962 46.9994 71.0784 47.1703 71.0483C47.339 71.0123 47.5857 70.9839 47.879 70.9267C48.0265 70.9016 48.1858 70.8749 48.3545 70.8465C48.5254 70.8215 48.702 70.7948 48.8886 70.766C49.2573 70.7036 49.6536 70.6519 50.0515 70.6036C50.2496 70.5734 50.4497 70.543 50.6456 70.5128C50.8419 70.4806 51.0378 70.4573 51.2263 70.4412C51.5992 70.411 51.9466 70.4128 52.2437 70.4323ZM61.554 65.8947C61.9754 65.7963 62.315 65.7162 62.5617 65.6895C62.6841 65.6696 62.7793 65.6662 62.8453 65.6607C62.9092 65.6573 62.9442 65.6555 62.9442 65.6555V65.7124C62.9442 65.7124 62.8084 65.7785 62.5751 65.8892C62.4606 65.9447 62.321 66.0105 62.1598 66.0855C62.0004 66.1571 61.816 66.241 61.6182 66.3212C61.4201 66.4106 61.2066 66.4963 60.9793 66.5925C60.7561 66.6888 60.5076 66.7748 60.259 66.8639C60.0064 66.9512 59.7481 67.0334 59.4842 67.1157C59.2163 67.1907 58.9442 67.2763 58.6766 67.362C58.1444 67.5405 57.5928 67.6957 57.0939 67.8618C56.5893 68.0153 56.1153 68.1582 55.7096 68.2812C55.3058 68.399 54.9658 68.4973 54.727 68.5669C54.4922 68.6381 54.3542 68.6721 54.3542 68.6721L54.3407 68.6224C54.3407 68.6224 54.4747 68.5758 54.702 68.4795C54.9289 68.3829 55.2592 68.2582 55.6593 68.1044C55.8571 68.0242 56.0709 67.9386 56.2959 67.8474C56.5214 67.7529 56.7695 67.6744 57.0144 67.5689C57.5077 67.3692 58.0474 67.1691 58.5755 66.9533C58.8397 66.8426 59.1133 66.7443 59.3734 66.6319C59.6335 66.5175 59.894 66.4157 60.1463 66.3229C60.6628 66.1482 61.1346 65.9964 61.554 65.8947ZM67.3384 59.5773C67.7828 59.2826 68.1908 59.0185 68.5655 58.8167C68.942 58.6187 69.2469 58.458 69.4761 58.3703C69.5865 58.3224 69.678 58.2936 69.7399 58.2723C69.8004 58.2525 69.8332 58.2419 69.8332 58.2419L69.8508 58.2953C69.8508 58.2953 69.7381 58.3919 69.5496 58.5577C69.4544 58.6382 69.3402 58.7383 69.21 58.8506C69.0741 58.9558 68.9226 59.0846 68.7554 59.211C68.5905 59.3467 68.4098 59.4824 68.2217 59.6307C68.0314 59.777 67.8217 59.9233 67.6082 60.0699C67.3925 60.2162 67.1693 60.3608 66.9364 60.5036C66.7013 60.6427 66.4666 60.7928 66.2333 60.9428C65.7675 61.2392 65.2995 61.539 64.8606 61.8192C64.4199 62.0922 64.0064 62.3495 63.653 62.5691C63.2995 62.785 63.0025 62.9652 62.7946 63.0919C62.6919 63.1563 62.6083 63.2043 62.552 63.2365C62.4956 63.2687 62.4647 63.2865 62.4647 63.2865L62.4356 63.242C62.4356 63.242 62.4647 63.2225 62.5169 63.1831C62.5695 63.1457 62.6472 63.0885 62.7423 63.0135C62.9327 62.8634 63.2122 62.6582 63.5499 62.4102C63.719 62.2868 63.8955 62.1477 64.0877 62.0032C64.2762 61.8548 64.4897 61.7157 64.6976 61.5551C65.1111 61.2371 65.5731 60.9124 66.0161 60.5715C66.2411 60.4019 66.4665 60.2323 66.6879 60.0644C66.9013 59.8931 67.1226 59.7308 67.3384 59.5773ZM71.8019 51.9389C71.9613 51.7192 72.1225 51.5068 72.2856 51.3051C72.6252 50.9104 72.9495 50.5589 73.2447 50.2697C73.3944 50.1269 73.5358 50.0001 73.6642 49.8895C73.7885 49.7788 73.8989 49.686 73.9941 49.6144C74.0874 49.5397 74.1669 49.4897 74.2177 49.4557C74.2699 49.4218 74.299 49.404 74.299 49.404L74.3322 49.452C74.3322 49.452 74.2524 49.5736 74.1203 49.7788C74.0546 49.8806 73.9747 50.0036 73.8739 50.143C73.7769 50.2787 73.6642 50.4356 73.5437 50.6034C73.4235 50.773 73.2951 50.9515 73.1514 51.1389C73.0077 51.3263 72.8525 51.5192 72.6894 51.7138C72.5263 51.9084 72.3535 52.103 72.165 52.2975C71.9807 52.4904 71.7982 52.6919 71.6175 52.8937C71.2544 53.2935 70.8913 53.697 70.5498 54.0756C70.2001 54.4487 69.8877 54.8019 69.606 55.0948C69.3302 55.3894 69.0973 55.6375 68.9342 55.8125C68.7674 55.9821 68.6722 56.0801 68.6722 56.0801L68.6315 56.0445C68.6315 56.0445 68.7188 55.9393 68.8603 55.7516C68.9984 55.559 69.2063 55.2928 69.4604 54.9698C69.5925 54.8129 69.7187 54.6323 69.8605 54.4449C70.0001 54.2558 70.1594 54.0667 70.3165 53.8649C70.6196 53.4562 70.973 53.0293 71.2992 52.5922C71.4701 52.3743 71.6369 52.1547 71.8019 51.9389ZM75.9766 40.2054C75.9396 40.3195 75.893 40.4569 75.8407 40.6159C75.7885 40.771 75.728 40.9495 75.6642 41.139C75.6019 41.3315 75.5145 41.5333 75.4328 41.7495C75.3496 41.9653 75.26 42.1887 75.1611 42.4169C75.0581 42.6454 74.9361 42.8722 74.8193 43.1062C74.6972 43.3381 74.5924 43.5772 74.4681 43.8146C74.2214 44.2895 74.0098 44.7715 73.7769 45.2162C73.5552 45.6643 73.3533 46.0781 73.1652 46.43C72.9805 46.7835 72.8428 47.0816 72.7282 47.2868C72.6177 47.492 72.5535 47.6082 72.5535 47.6082L72.505 47.5849C72.505 47.5849 72.5554 47.4619 72.6409 47.2457C72.7245 47.0278 72.8446 46.7191 72.9902 46.346C73.0659 46.1604 73.1514 45.9603 73.2272 45.7445C73.3048 45.5286 73.4018 45.307 73.4933 45.0716C73.6873 44.6074 73.8661 44.1038 74.0796 43.606C74.1747 43.3525 74.2699 43.1007 74.3632 42.8526C74.4565 42.6025 74.5591 42.3583 74.6524 42.1243C74.8484 41.6601 75.0872 41.2442 75.2776 40.8944C75.4795 40.5463 75.6642 40.2644 75.8116 40.0821C75.8814 39.9875 75.9456 39.9197 75.9844 39.8731C76.0251 39.8269 76.0464 39.8036 76.0464 39.8036L76.0911 39.843C76.0911 39.8392 76.0542 39.9749 75.9766 40.2054Z" fill="#46689C"/>
<path d="M54.2742 75.4793C54.2104 75.383 54.1208 75.2867 54.0141 75.1778C53.9074 75.0705 53.7812 74.9544 53.6357 74.8297C53.4879 74.7081 53.3114 74.5906 53.121 74.46C52.3541 73.9479 51.218 73.3891 49.7345 72.9482C49.3677 72.8266 48.9736 72.7409 48.5638 72.634C48.3582 72.5857 48.1484 72.5446 47.9327 72.4984C47.7174 72.4501 47.4979 72.4072 47.2725 72.3699C46.4824 72.2216 45.6319 72.1075 44.7254 72.002L42.5156 73.189C44.5253 73.473 46.3253 73.8194 47.8435 74.2888C48.6728 74.5529 49.4143 74.8475 50.0667 75.1634C50.7075 75.4936 51.2763 75.8184 51.7364 76.1648C51.8532 76.2487 51.9678 76.3309 52.0764 76.4111C52.1794 76.4988 52.2783 76.5827 52.3753 76.6629C52.4724 76.7431 52.5657 76.8219 52.6549 76.8969C52.7403 76.9754 52.818 77.0555 52.8956 77.1306C53.0471 77.284 53.1968 77.4125 53.3132 77.5482C53.4297 77.6821 53.5364 77.8017 53.6278 77.9072C53.8279 78.1319 54.1111 77.9322 54.3074 77.5053C54.5015 77.0805 54.6101 76.395 54.4004 75.7437C54.381 75.6649 54.3365 75.5776 54.2742 75.4793Z" fill="#46689C"/>
<path d="M26.8287 71.9713C27.1471 71.9998 27.4597 72.0104 27.7665 72.0052C28.0733 72.0015 28.3723 71.9926 28.6655 71.9748C29.2577 71.923 29.8227 71.8679 30.3916 71.7819C30.8926 71.7161 31.3916 71.6445 31.9003 71.5822C32.4537 71.7051 33.0051 71.8179 33.5488 71.9196L35.3448 70.9538C34.9565 70.8949 34.5642 70.8322 34.172 70.7627C33.6691 70.6825 33.1682 70.577 32.6575 70.4824C32.5158 70.4502 32.3721 70.4201 32.2285 70.3896C31.811 70.1272 31.4207 69.8469 31.0499 69.5544C30.6324 69.2419 30.2421 68.8955 29.8344 68.5759C29.6344 68.4101 29.4324 68.2422 29.2247 68.0816C29.015 67.9243 28.8034 67.7636 28.5859 67.5995C28.1082 67.2638 27.0869 66.7105 26.2267 66.1983C25.7938 65.9359 25.3918 65.6913 25.0987 65.5145C24.8094 65.3288 24.6268 65.213 24.6268 65.213C24.6268 65.213 24.6501 65.5556 24.7899 66.0894C24.8637 66.3518 24.9686 66.6588 25.1161 66.9945C25.1899 67.162 25.2754 67.3371 25.3724 67.5156C25.4715 67.6889 25.5841 67.8674 25.7103 68.0459C25.8404 68.2333 25.9918 68.408 26.1627 68.5742C26.153 68.5708 26.1433 68.567 26.1336 68.5619C25.3783 67.9209 24.7589 67.221 24.1958 66.507C23.2948 65.3627 22.5396 64.1829 21.627 63.0119C21.5047 62.8546 21.3435 62.6621 21.1513 62.4565C21.0542 62.3548 20.9513 62.2462 20.8425 62.1335C20.7357 62.0194 20.6251 61.8998 20.5105 61.7765C20.394 61.6569 20.2756 61.5339 20.1552 61.4072C20.0368 61.2784 19.9164 61.1499 19.796 61.018L19.4309 60.6305C19.3145 60.4983 19.196 60.3681 19.0815 60.2396C18.9669 60.1129 18.8543 59.9878 18.7436 59.8665C18.6368 59.7432 18.5339 59.6219 18.4368 59.5078C18.2426 59.2756 18.0562 59.0758 17.9145 58.8919C17.6213 58.5349 17.4369 58.3081 17.4369 58.3081C17.4369 58.3081 17.2893 58.774 17.2097 59.5486C17.1359 60.3181 17.1514 61.3928 17.5029 62.5799C17.6349 62.9903 17.8232 63.4045 18.0679 63.7974C18.1514 63.9239 18.2388 64.0506 18.33 64.1774C18.2252 64.0989 18.1223 64.0188 18.0174 63.94C17.4543 63.101 17.0447 62.2373 16.701 61.3784C16.1728 60.0505 15.7962 58.7223 15.2622 57.3656C15.1865 57.1854 15.0913 56.9586 14.9651 56.7106C14.903 56.5855 14.835 56.4571 14.7632 56.3214C14.6953 56.184 14.6234 56.0412 14.5496 55.8945C14.3981 55.6037 14.2351 55.3001 14.0836 54.986C13.9263 54.6756 13.7652 54.3666 13.6234 54.0596C13.3244 53.4563 13.0778 52.8832 12.8895 52.469C12.7128 52.0513 12.6021 51.7872 12.6021 51.7872C12.6021 51.7872 12.3245 52.1997 12.0196 52.9277C11.8721 53.2901 11.7284 53.7276 11.6099 54.2347C11.4954 54.7397 11.4255 55.3039 11.4177 55.9195C11.4235 56.3481 11.4818 56.7945 11.6041 57.2317C11.6565 57.4102 11.7167 57.5904 11.7827 57.7709C11.7051 57.6709 11.6274 57.5725 11.5517 57.4708C11.2313 56.4838 11.0799 55.5125 10.9983 54.5629C10.876 53.1545 10.909 51.7783 10.7867 50.3394C10.7653 50.1486 10.7362 49.9057 10.6896 49.6361C10.6449 49.3647 10.577 49.0684 10.5245 48.747C10.4022 48.1115 10.2721 47.4065 10.1654 46.7497C10.1187 46.4195 10.0605 46.1053 10.0236 45.8141C9.9867 45.5233 9.95177 45.2591 9.92262 45.0361C9.87605 44.5897 9.84496 44.3077 9.84496 44.3077C9.84496 44.3077 9.74789 44.3917 9.5867 44.552C9.42749 44.7127 9.19256 44.9539 8.9518 45.2646C8.70911 45.5767 8.43532 45.9642 8.17318 46.4246C7.92855 46.8799 7.67611 47.4137 7.50138 48.0009C7.31302 48.6258 7.26062 49.3075 7.3169 49.9951C7.26838 49.8752 7.22371 49.7539 7.17713 49.6326C7.14216 48.5634 7.28003 47.5583 7.48585 46.5908C7.7868 45.2002 8.21203 43.8829 8.51105 42.4653C8.55374 42.2745 8.57901 42.0353 8.61588 41.764C8.65473 41.4906 8.68578 41.1874 8.71493 40.8661C8.74986 40.5447 8.78677 40.2055 8.82364 39.8626C8.85857 39.5217 8.91101 39.1771 8.94792 38.8472C8.98091 38.5149 9.04693 38.199 9.08578 37.9081C9.13236 37.6171 9.16151 37.3529 9.20614 37.1315C9.28967 36.6888 9.34206 36.4086 9.34206 36.4086C9.34206 36.4086 8.8722 36.6335 8.20229 37.1155C7.87223 37.3582 7.51108 37.6671 7.12858 38.0473C6.94022 38.2383 6.7422 38.4453 6.55578 38.6721C6.37523 38.8989 6.19463 39.1432 6.02184 39.4056C5.6296 40.0003 5.38302 40.6965 5.24516 41.4228C5.23158 41.2854 5.21799 41.148 5.20829 41.0106C5.48397 39.927 5.92473 38.9578 6.41986 38.0419C6.5946 37.7242 6.76355 37.4136 6.94216 37.1047C7.12664 36.7995 7.31108 36.4943 7.49943 36.1854C7.58874 36.0319 7.67805 35.8784 7.76934 35.7249C7.86253 35.5714 7.95572 35.4178 8.05088 35.2607C8.2392 34.9502 8.40229 34.6324 8.58095 34.3093C8.96927 33.6131 9.47216 32.1565 10.045 30.9355C10.1692 30.6249 10.3226 30.3357 10.4469 30.0661C10.577 29.7984 10.6818 29.552 10.7867 29.3503C10.9964 28.9451 11.1284 28.6898 11.1284 28.6898C11.1284 28.6898 10.61 28.7898 9.82361 29.0897C9.43529 29.2414 8.99644 29.4503 8.51881 29.7216C8.28388 29.8591 8.02756 30.009 7.78874 30.184C7.54799 30.3571 7.30526 30.5499 7.06256 30.7605C6.89171 30.9087 6.72862 31.0711 6.57325 31.2425C6.42763 31.4157 6.28976 31.5995 6.1597 31.7923C5.97911 32.0601 5.81019 32.3457 5.66457 32.6402C5.69174 32.4992 5.72089 32.3582 5.75 32.2172C5.94806 31.8762 6.16164 31.5531 6.37523 31.2443C6.60434 30.9372 6.84509 30.6445 7.08391 30.3607C7.2043 30.2197 7.3247 30.0804 7.447 29.943L7.83536 29.5431C8.09552 29.2807 8.3499 29.0236 8.61006 28.7701C8.87608 28.522 9.14404 28.2721 9.41391 28.0222C9.67022 27.7687 9.94595 27.5224 10.2158 27.2689C10.4877 27.0172 10.7304 26.7476 11.0061 26.4852C11.5711 25.9051 12.505 24.6394 13.3982 23.5934C13.6196 23.331 13.8448 23.0846 14.0428 22.8561C14.1419 22.7419 14.2351 22.633 14.3244 22.5295C14.4176 22.4295 14.505 22.3366 14.5846 22.251C14.901 21.91 15.0991 21.694 15.0991 21.694C15.0991 21.694 14.5729 21.6655 13.7322 21.7637C13.307 21.8101 12.8235 21.9029 12.2856 22.0493C12.0177 22.1225 11.7361 22.2099 11.4468 22.3135C11.1595 22.4188 10.876 22.5473 10.5808 22.6901C10.1673 22.8954 9.75953 23.1489 9.40808 23.4595C9.22753 23.613 9.05275 23.7755 8.88384 23.945C8.77703 24.0504 8.67414 24.1628 8.57707 24.2753C8.58483 24.2628 8.59065 24.2485 8.59647 24.2342C8.66055 24.111 8.72657 23.9914 8.79065 23.8701C9.68187 22.9775 10.6663 22.2956 11.6818 21.7065C12.3186 21.3192 12.9963 20.9835 13.6428 20.6248C13.971 20.448 14.3108 20.2802 14.637 20.0964C14.9632 19.9125 15.2913 19.7269 15.6292 19.5359C16.3282 19.1021 17.6194 18.1292 18.7747 17.3312C19.0659 17.1349 19.3474 16.9457 19.6038 16.7725C19.86 16.5994 20.1067 16.4548 20.3047 16.3263C20.5047 16.1977 20.6678 16.0942 20.7823 16.021C20.893 15.946 20.961 15.9121 20.961 15.9121C20.961 15.9121 20.8309 15.8693 20.6037 15.8175C20.3746 15.7657 20.0426 15.6997 19.6251 15.6479C18.7844 15.5354 17.6213 15.5051 16.3146 15.7675C15.8602 15.8657 15.4001 16.0174 14.9593 16.2209C14.5652 16.4137 14.1768 16.6404 13.804 16.8903C13.9205 16.7672 14.037 16.644 14.1535 16.5262C14.2273 16.4833 14.303 16.4405 14.3749 16.3977C14.5554 16.2977 14.7341 16.2013 14.9127 16.1102C15.0952 16.021 15.2816 15.9407 15.4641 15.8621C15.833 15.7068 16.1923 15.5605 16.5573 15.4319C16.9281 15.3105 17.2971 15.1981 17.6621 15.091C19.1397 14.6804 20.5901 14.3841 22.0969 13.9646C22.4929 13.8378 23.0832 13.6326 23.7259 13.3737C24.0443 13.2416 24.3958 13.1256 24.7375 12.9917C24.9084 12.9257 25.0812 12.8596 25.252 12.7918C25.4249 12.7311 25.5977 12.6722 25.7685 12.6132C26.1083 12.4972 26.4248 12.3705 26.7277 12.2759C27.0287 12.1795 27.3005 12.0902 27.5315 12.0153C27.7607 11.9385 27.9471 11.876 28.0811 11.8421C28.2131 11.8046 28.2868 11.7832 28.2868 11.7832C28.2868 11.7832 28.1762 11.7136 27.9684 11.6029C27.7607 11.4887 27.4597 11.3458 27.0753 11.1959C26.6889 11.0459 26.217 10.8871 25.6715 10.7514C25.1336 10.6318 24.522 10.5372 23.8502 10.4979C23.656 10.4908 23.4599 10.4979 23.2599 10.5104C24.7026 10.0552 26.2267 9.60536 27.6636 9.052C29.3994 8.37542 31.2265 7.45077 32.7041 6.73315C33.0731 6.55642 33.4148 6.38684 33.7235 6.22975C34.0342 6.08159 34.308 5.95128 34.5351 5.84417C34.9914 5.62282 35.2594 5.48001 35.2594 5.48001C35.2594 5.48001 34.9604 5.43538 34.4419 5.37826C34.1837 5.35149 33.8672 5.31757 33.5099 5.29079C33.1527 5.27651 32.7527 5.26402 32.3158 5.26045C31.879 5.24973 31.4149 5.27473 30.9275 5.30864C30.6848 5.32471 30.4343 5.34434 30.1819 5.36755C29.9295 5.39611 29.6771 5.43538 29.4208 5.47466C28.9082 5.55499 28.384 5.64424 27.8772 5.78526C27.3685 5.92093 26.8597 6.05838 26.3879 6.25653C24.8171 6.85989 23.3842 7.77564 22.1706 8.74672C22.2813 8.59499 22.3862 8.43969 22.4832 8.28083C22.8405 7.73101 23.1453 7.18299 23.3997 6.66889C23.6638 6.17084 23.8793 5.7085 24.0502 5.31043C24.2191 4.91057 24.3453 4.58032 24.4307 4.35719C24.5142 4.13048 24.553 4.00195 24.553 4.00195C24.553 4.00195 24.4657 4.0448 24.3084 4.11977C24.1511 4.19296 23.9278 4.31077 23.6599 4.45894C23.392 4.60531 23.0735 4.78026 22.724 4.97305C22.3765 5.16405 22.0134 5.39968 21.6328 5.63353C21.4445 5.75135 21.2522 5.87273 21.06 5.99412C20.8736 6.12265 20.6852 6.25296 20.4989 6.38327C20.1299 6.64746 19.7591 6.89738 19.4329 7.16336C18.7747 7.68996 18.2116 8.16658 17.897 8.53788C16.6893 9.86957 15.9399 11.2869 15.2505 12.6775C15.0816 13.0256 14.9146 13.3737 14.7457 13.7254C14.5807 14.077 14.4215 14.4341 14.2467 14.7839C14.072 15.1338 13.8933 15.4872 13.7108 15.8479C13.6798 15.9121 13.6448 15.9746 13.6118 16.0371C13.4856 16.1656 13.3574 16.2995 13.2293 16.4333C13.4623 16.0603 13.6739 15.6747 13.8545 15.2766C14.0603 14.8482 14.2389 14.4162 14.3593 13.9681C14.7166 12.7204 14.8972 11.56 15.0059 10.7193C15.0564 10.2962 15.0816 9.94812 15.0933 9.70533C15.103 9.46257 15.1069 9.33224 15.1069 9.33224C15.1069 9.33224 15.0311 9.39117 14.9069 9.50899C14.7826 9.62499 14.602 9.79101 14.3826 9.99629C14.1651 10.2034 13.9011 10.4408 13.6293 10.7175C13.3613 10.9978 13.0701 11.3012 12.7672 11.6189C11.5866 12.906 10.4042 14.4662 10.01 15.3302C9.91292 15.5283 9.82167 15.7229 9.73624 15.9175C9.65466 16.1156 9.58091 16.3137 9.51101 16.5101C9.37121 16.9046 9.24111 17.2849 9.13818 17.674C8.94016 18.4541 8.77315 19.2038 8.65861 19.9696C8.45667 21.1407 8.30522 22.3028 8.06447 23.513C7.9868 23.6559 7.9072 23.7969 7.83148 23.9415C7.86641 23.7987 7.90134 23.6559 7.93631 23.513C7.98874 23.2828 8.03338 23.0507 8.06835 22.8169C8.12855 22.3474 8.18483 21.8904 8.17512 21.4316C8.17124 21.1085 8.14989 20.789 8.13243 20.4873C8.11687 20.1856 8.09358 19.8947 8.06447 19.6162C8.00427 19.0592 7.92078 18.5541 7.8567 18.1381C7.71496 17.3009 7.55769 16.7779 7.55769 16.7779C7.55769 16.7779 7.35963 17.0938 7.04897 17.5919C6.97325 17.7168 6.88977 17.8543 6.80042 17.9989C6.71693 18.1488 6.62957 18.3077 6.53638 18.4737C6.35578 18.8075 6.1519 19.1681 5.9597 19.5501C5.18302 21.0764 4.52286 22.8847 4.37335 23.8076C4.28987 24.2324 4.26852 24.6609 4.23743 25.0714C4.21026 25.4838 4.19862 25.8836 4.21802 26.2853C4.23161 26.6852 4.2549 27.0761 4.28404 27.4617C4.32286 27.8508 4.37335 28.2346 4.41996 28.6148L4.48987 29.1825C4.51898 29.3717 4.54809 29.5627 4.57723 29.7537C4.63549 30.134 4.68405 30.5124 4.72868 30.8962C4.78888 31.2728 4.83157 31.6495 4.86848 32.0333C4.83545 32.1868 4.8044 32.3403 4.77529 32.4938C4.75585 32.1618 4.73256 31.8334 4.68401 31.5067C4.65102 31.2746 4.60634 31.0426 4.552 30.8141C4.50733 30.5874 4.45102 30.3642 4.38111 30.1447C4.28404 29.8341 4.17529 29.5342 4.06464 29.245C3.952 28.9558 3.85493 28.6845 3.74428 28.4221C3.53068 27.9026 3.30156 27.4349 3.10933 27.0475C2.73459 26.2764 2.4317 25.8122 2.4317 25.8122C2.4317 25.8122 2.33073 26.1639 2.17151 26.7209C2.09384 26.9993 2.02394 27.3349 1.94045 27.7009C1.86084 28.0668 1.76182 28.4631 1.70163 28.8808C1.37931 30.5392 1.29971 32.4492 1.41232 33.3721C1.46475 33.8023 1.55989 34.2201 1.65309 34.6217C1.69969 34.8234 1.75017 35.0216 1.8026 35.2161C1.85891 35.4107 1.92492 35.6053 1.98899 35.7945C2.11908 36.1747 2.255 36.546 2.39286 36.9102C2.54237 37.2743 2.70547 37.6332 2.85886 37.9866C3.31321 39.0113 3.79279 40.011 4.23355 41.0768C4.24329 41.2104 4.25101 41.346 4.2627 41.48C3.99473 40.7715 3.67047 40.0839 3.2569 39.4683C3.07245 39.1932 2.8841 38.9308 2.69381 38.6793C2.50936 38.4292 2.33073 38.1901 2.14821 37.9669C1.79094 37.5189 1.43368 37.1262 1.13661 36.8013C0.550228 36.1515 0.125 35.7802 0.125 35.7802C0.125 35.7802 0.130826 36.1444 0.138593 36.7192C0.142476 37.0066 0.175486 37.3458 0.200728 37.717C0.233736 38.0883 0.249269 38.4936 0.30946 38.9095C0.365768 39.3254 0.41431 39.7557 0.491978 40.1788C0.571587 40.6019 0.64731 41.0178 0.736629 41.4087C0.833711 41.7996 0.930793 42.1638 1.02593 42.4869C1.12302 42.8082 1.23369 43.0847 1.32689 43.3009C2.04531 44.9056 3.02585 46.1893 4.03553 47.4048C4.74226 48.2472 5.46457 49.0612 6.17134 49.9379C6.21598 50.0575 6.25871 50.1787 6.30533 50.3C5.86845 49.7327 5.3869 49.1969 4.8549 48.7381C4.3326 48.2989 3.83747 47.9029 3.34622 47.56C2.8744 47.2136 2.42976 46.9173 2.04336 46.6764C1.65503 46.4373 1.34825 46.2482 1.12302 46.1231C0.899728 45.9981 0.771576 45.9357 0.771576 45.9357C0.771576 45.9357 0.798761 46.0231 0.845359 46.1803C0.895843 46.3373 0.95797 46.564 1.05505 46.8371C1.15213 47.1101 1.26863 47.4332 1.39484 47.7885C1.52493 48.142 1.68804 48.5206 1.8492 48.9132C2.1851 49.695 2.58314 50.5145 2.98506 51.225C3.17729 51.5837 3.38894 51.9085 3.57728 52.1942C3.76562 52.4799 3.93842 52.7262 4.0996 52.9082C5.25874 54.2809 6.57131 55.2789 7.9072 56.1998C8.8023 56.8158 9.70321 57.403 10.6061 58.0474C10.6837 58.1529 10.7575 58.2581 10.8372 58.3615C10.278 57.9511 9.69157 57.578 9.07996 57.2851C8.46055 56.9836 7.847 56.7335 7.28779 56.5177C6.7325 56.2998 6.21016 56.1268 5.77328 55.9874C4.90539 55.7054 4.33066 55.5859 4.33066 55.5859C4.33066 55.5859 4.53838 55.8966 4.86848 56.3855C5.21217 56.8658 5.68203 57.5225 6.23931 58.1902C6.50917 58.5294 6.80822 58.8669 7.10723 59.1971C7.40042 59.5308 7.71108 59.845 8.00815 60.1396C8.15572 60.2859 8.2994 60.4287 8.44114 60.561C8.58677 60.6894 8.72657 60.8128 8.85857 60.9286C9.12654 61.1554 9.36147 61.3517 9.56729 61.4891C11.0818 62.5281 12.6448 63.1636 14.2001 63.7204C15.2039 64.0794 16.2039 64.4096 17.2213 64.7862C17.3281 64.8684 17.4349 64.9523 17.5417 65.0325C16.9204 64.7951 16.2835 64.6005 15.6467 64.4775C14.2739 64.2096 13.0079 64.0955 12.0818 64.0438C11.1614 63.9865 10.5711 64.015 10.5711 64.015C10.5711 64.015 10.8643 64.2613 11.3264 64.6522C11.5536 64.8489 11.8449 65.063 12.1536 65.3055C12.3109 65.4254 12.472 65.5522 12.6429 65.6769C12.8157 65.8002 12.9943 65.927 13.1769 66.0555C13.3594 66.1822 13.5458 66.3107 13.7322 66.4409C13.9244 66.5642 14.1166 66.6872 14.3088 66.8105C14.5011 66.9318 14.6913 67.0534 14.8836 67.1692C15.0777 67.2799 15.268 67.3888 15.4544 67.4944C15.6408 67.5978 15.8233 67.6958 15.9961 67.7924C16.1728 67.8835 16.3456 67.9654 16.5068 68.0422C16.833 68.1939 17.1184 68.3224 17.3553 68.4063C19.1222 69.0312 20.8192 69.247 22.4813 69.3937C23.5143 69.4827 24.5394 69.5472 25.5919 69.6434C25.6113 69.6506 25.6287 69.6578 25.6482 69.6667C25.3918 69.6595 25.1356 69.6612 24.887 69.6828C24.6443 69.7041 24.4094 69.7346 24.1822 69.7668C23.9589 69.7952 23.7434 69.8291 23.5395 69.8665C23.1318 69.9398 22.7628 70.0271 22.4561 70.1059C21.8483 70.2556 21.4755 70.3968 21.4755 70.3968C21.4755 70.3968 21.7182 70.4985 22.1027 70.6575C22.4929 70.8055 23.023 71.0073 23.6055 71.2019C24.7763 71.5911 26.1394 71.9247 26.8287 71.9713ZM4.01996 38.4936C4.01996 38.4936 3.99473 38.3651 3.952 38.1419C3.90737 37.9152 3.84329 37.5939 3.7695 37.2101C3.6899 36.8245 3.62193 36.3764 3.53067 35.8909C3.4297 35.4054 3.36369 34.8912 3.26855 34.3736C3.22389 34.1147 3.16565 33.8541 3.12487 33.6024C3.08215 33.3489 3.03749 33.1008 3.00254 32.8562C2.96954 32.6117 2.94041 32.3725 2.91905 32.144C2.90546 31.9155 2.88993 31.7031 2.88411 31.4996C2.8744 31.2996 2.86663 31.1122 2.85886 30.9497C2.85304 30.7837 2.84721 30.6392 2.84333 30.5196C2.83944 30.2804 2.84527 30.1393 2.84527 30.1393L2.89963 30.1126C2.89963 30.1126 2.91322 30.1411 2.93846 30.1946C2.96371 30.25 3.00254 30.3303 3.03944 30.4374C3.12487 30.6498 3.22971 30.9676 3.3268 31.3532C3.42388 31.7406 3.49573 32.194 3.57534 32.6938C3.6064 32.9437 3.6297 33.2025 3.64329 33.4667C3.65106 33.5988 3.65883 33.7309 3.66853 33.863C3.68213 33.9951 3.69378 34.129 3.70737 34.2629C3.73453 34.5289 3.75786 34.7949 3.77727 35.0555C3.78697 35.1858 3.79667 35.3143 3.80638 35.4428C3.82 35.5696 3.83358 35.6963 3.84911 35.8213C3.8724 36.0694 3.90154 36.3068 3.91513 36.5353C3.9326 36.762 3.93842 36.9762 3.96562 37.1726C4.00638 37.5689 4.03937 37.8956 4.05299 38.1258C4.06852 38.3542 4.07822 38.4864 4.07822 38.4864L4.01996 38.4936ZM26.353 67.271C26.353 67.271 26.4326 67.3248 26.5646 67.4104C26.6287 67.4567 26.7083 67.5084 26.7995 67.5656C26.8869 67.6262 26.9937 67.6889 27.0986 67.7657C27.2093 67.8369 27.3238 67.9209 27.4481 68.0065C27.5704 68.0939 27.6986 68.185 27.8306 68.2796C27.9607 68.3762 28.0888 68.4831 28.2228 68.592C28.3548 68.6992 28.4946 68.8116 28.6402 68.9099C28.9334 69.1097 29.2383 69.3026 29.5276 69.4827C29.8227 69.6523 30.1023 69.8113 30.347 69.9452C30.5897 70.0792 30.8033 70.1755 30.9508 70.2488C31.0984 70.3218 31.1838 70.3629 31.1838 70.3629L31.1586 70.4074C31.1586 70.4074 31.0673 70.379 30.9062 70.3289C30.745 70.2789 30.5159 70.2077 30.246 70.1022C30.112 70.0504 29.9664 69.9932 29.813 69.9326C29.6596 69.8719 29.5023 69.8041 29.3392 69.7308C29.015 69.5794 28.6791 69.4077 28.349 69.2275C28.1859 69.133 28.0228 69.0401 27.8616 68.9473C27.7005 68.8561 27.5471 68.7599 27.4073 68.6616C27.1355 68.4509 26.9141 68.2278 26.7433 68.0298C26.5724 67.8315 26.4559 67.6513 26.3918 67.5139C26.3258 67.3799 26.3045 67.2998 26.3045 67.2998L26.353 67.271ZM18.7339 61.7587C18.7339 61.7587 18.8057 61.8604 18.9281 62.0355C18.9882 62.1229 19.064 62.228 19.1494 62.3496C19.2309 62.4709 19.3397 62.5994 19.4426 62.746C19.5552 62.8906 19.6678 63.0492 19.794 63.2171C19.9202 63.3832 20.0542 63.558 20.1921 63.7365C20.326 63.9221 20.462 64.1133 20.6037 64.3079C20.7474 64.4987 20.9027 64.6916 21.062 64.8828C21.3746 65.2737 21.7357 65.6235 22.0697 65.9698C22.4172 66.3001 22.7512 66.6053 23.0444 66.864C23.3453 67.1124 23.6036 67.3176 23.7861 67.4621C23.9667 67.6084 24.0754 67.6852 24.0754 67.6852L24.0385 67.7246C24.0385 67.7246 23.9201 67.6584 23.7201 67.53C23.5181 67.4066 23.2385 67.2192 22.9026 66.9945C22.7415 66.8749 22.5667 66.7444 22.3823 66.607C22.1978 66.4679 22.0095 66.3234 21.8211 66.1589C21.4464 65.8324 21.0503 65.4895 20.6892 65.113C20.5047 64.9273 20.3222 64.7471 20.1513 64.5559C19.9785 64.3685 19.8193 64.1774 19.6717 63.99C19.3824 63.6152 19.1805 63.2243 19.0193 62.9012C18.864 62.5744 18.7747 62.2818 18.73 62.0817C18.7047 61.9817 18.695 61.9015 18.6873 61.8481C18.6815 61.7943 18.6776 61.7659 18.6776 61.7659L18.7339 61.7587ZM12.7497 55.752C12.7536 55.6503 12.7691 55.5698 12.7769 55.5163C12.7866 55.4625 12.7904 55.4341 12.7904 55.4341L12.8487 55.4379C12.8487 55.4379 12.8876 55.5537 12.9555 55.752C12.9885 55.8517 13.0293 55.9713 13.0759 56.1107C13.1264 56.2464 13.1827 56.3999 13.2429 56.566C13.3089 56.7318 13.371 56.9141 13.4428 57.1066C13.5166 57.2978 13.5982 57.4958 13.6739 57.7065C13.7535 57.9155 13.8176 58.1385 13.903 58.3598C13.9846 58.5811 14.0778 58.8045 14.1729 59.0293C14.3613 59.4808 14.602 59.9111 14.8214 60.3287C15.0602 60.7306 15.2875 61.1143 15.4952 61.4339C15.7107 61.7481 15.8971 62.0122 16.0292 62.1979C16.0932 62.2907 16.1476 62.362 16.1864 62.4103C16.2233 62.4586 16.2427 62.4836 16.2427 62.4836L16.1961 62.512C16.1961 62.512 16.1728 62.4887 16.1301 62.4442C16.0854 62.3997 16.0233 62.3335 15.9476 62.2479C15.7903 62.0783 15.5768 61.8265 15.3224 61.5267C15.2 61.3733 15.0719 61.2016 14.9341 61.0252C14.7981 60.8467 14.6622 60.6555 14.5263 60.4537C14.2642 60.045 13.9807 59.6165 13.7477 59.1632C13.6254 58.9381 13.505 58.7168 13.3943 58.4938C13.2836 58.2687 13.1866 58.0457 13.0992 57.8278C12.9302 57.3958 12.8506 56.9675 12.7924 56.6157C12.7342 56.2587 12.7342 55.9555 12.7497 55.752ZM8.62364 49.006C8.65279 48.8276 8.68384 48.6669 8.71687 48.5274C8.75568 48.3866 8.79453 48.265 8.83335 48.1688C8.86832 48.0708 8.90519 47.9975 8.92851 47.9474C8.95374 47.8974 8.96733 47.8724 8.96733 47.8724L9.0217 47.8902C9.0217 47.8902 9.02558 48.0136 9.02947 48.2205C9.03141 48.3239 9.03335 48.4507 9.04499 48.5936C9.05275 48.7364 9.06246 48.9005 9.0722 49.0739C9.08772 49.2507 9.08966 49.4432 9.10713 49.645C9.12654 49.8468 9.14206 50.0592 9.15374 50.2805C9.16733 50.5018 9.16539 50.732 9.18479 50.9643C9.19838 51.1979 9.22167 51.4354 9.24693 51.6765C9.30519 52.1548 9.39838 52.6351 9.49351 53.0884C9.60808 53.5348 9.7071 53.9613 9.81973 54.3203C9.93427 54.6773 10.0353 54.9771 10.109 55.1895C10.1867 55.3985 10.2313 55.5163 10.2313 55.5163L10.1789 55.5324C10.1789 55.5324 10.1168 55.418 10.0158 55.2162C9.91486 55.0127 9.78282 54.7184 9.62749 54.3649C9.54789 54.1898 9.47993 53.9901 9.40032 53.7866C9.32072 53.5814 9.25081 53.3618 9.17315 53.1367C9.04305 52.6762 8.89354 52.1959 8.80035 51.6998C8.74792 51.4535 8.70131 51.2089 8.65473 50.966C8.61006 50.7231 8.58677 50.4823 8.56542 50.252C8.53239 49.7895 8.57124 49.3613 8.62364 49.006ZM6.2024 43.2865C6.22568 43.0367 6.25483 42.7866 6.282 42.5441C6.30727 42.2995 6.3422 42.062 6.39851 41.8335C6.51499 41.382 6.64703 40.9784 6.81404 40.6482C6.97713 40.3179 7.13052 40.0572 7.25674 39.8897C7.3169 39.8037 7.37128 39.7413 7.41013 39.6985C7.44894 39.6574 7.47032 39.6341 7.47032 39.6341L7.5169 39.6646C7.5169 39.6646 7.48391 39.7842 7.43341 39.9859C7.40819 40.0877 7.3771 40.209 7.34216 40.3501C7.3072 40.4892 7.26644 40.6499 7.22177 40.8212C7.18296 40.9962 7.14216 41.1819 7.09753 41.38C7.0548 41.5783 7.00624 41.789 6.9519 42.0048C6.89947 42.2207 6.84509 42.444 6.79072 42.6726C6.73638 42.9011 6.68006 43.1385 6.64315 43.3759C6.57325 43.8507 6.49559 44.3396 6.47618 44.7966C6.44901 45.2553 6.42374 45.6911 6.43151 46.0642C6.43733 46.4356 6.43733 46.7532 6.45677 46.9728C6.4723 47.1924 6.48006 47.3191 6.48006 47.3191L6.42374 47.3208C6.42374 47.3208 6.40045 47.1958 6.35772 46.9762C6.30921 46.7586 6.28006 46.439 6.23154 46.0604C6.2121 45.8713 6.18687 45.6661 6.17523 45.4482C6.1597 45.2307 6.1597 45.0001 6.15 44.7648C6.14026 44.2899 6.17329 43.7829 6.2024 43.2865ZM5.75 35.6035C5.78885 35.4875 5.8296 35.3697 5.87039 35.2501C5.95194 35.0144 6.0393 34.7752 6.12861 34.5396C6.17329 34.4218 6.21792 34.304 6.26065 34.1861C6.31115 34.0701 6.3616 33.9559 6.4121 33.8416C6.51111 33.6131 6.61986 33.3936 6.72858 33.1865C6.94799 32.7741 7.22953 32.426 7.47032 32.1458C7.71884 31.8673 7.93631 31.6531 8.11104 31.5228C8.19651 31.4549 8.27029 31.4103 8.31881 31.3782C8.36736 31.3478 8.39453 31.3318 8.39453 31.3318L8.43144 31.3728C8.43144 31.3728 8.36542 31.4799 8.25279 31.6602C8.20035 31.7513 8.13825 31.8619 8.06447 31.9887C7.99068 32.1154 7.9072 32.26 7.81785 32.4135C7.7266 32.5706 7.62953 32.7402 7.5266 32.9187C7.43341 33.1008 7.33052 33.2918 7.21983 33.4881C7.10914 33.6845 6.9849 33.8845 6.86256 34.0915C6.7325 34.2968 6.63733 34.5146 6.52667 34.7342C6.31697 35.1751 6.10338 35.6267 5.95582 36.0641C5.80437 36.5014 5.64707 36.9155 5.54611 37.2761C5.4471 37.6367 5.37138 37.9438 5.317 38.1598C5.26263 38.3758 5.23158 38.4988 5.23158 38.4988L5.1772 38.4881C5.1772 38.4881 5.19272 38.3614 5.21993 38.1401C5.24322 37.9187 5.29371 37.6028 5.35391 37.2243C5.38302 37.0369 5.4374 36.8334 5.48203 36.6192C5.52865 36.405 5.59273 36.1837 5.65098 35.9534C5.68592 35.8373 5.717 35.7213 5.75 35.6035ZM9.0547 25.4963C9.21585 25.2999 9.38285 25.1143 9.54983 24.9411C9.71486 24.7697 9.89351 24.6198 10.0702 24.4842C10.245 24.3485 10.4119 24.2271 10.5711 24.1218C10.8896 23.9129 11.1614 23.7612 11.373 23.6808C11.474 23.6362 11.5595 23.6112 11.6157 23.5916C11.6721 23.5737 11.7012 23.5648 11.7012 23.5648L11.7245 23.613C11.7245 23.613 11.6293 23.6987 11.4682 23.8451C11.3847 23.9165 11.2934 24.0093 11.1867 24.1146C11.0799 24.2182 10.9575 24.3378 10.8274 24.4645C10.6974 24.5966 10.5517 24.7323 10.4003 24.8804C10.2469 25.0286 10.1013 25.1892 9.93427 25.3517C9.77118 25.5142 9.5945 25.6748 9.41585 25.8444C9.23141 26.0104 9.06828 26.1943 8.90131 26.3799C8.57512 26.753 8.23144 27.135 7.96348 27.5188C7.69167 27.9026 7.41789 28.2632 7.21789 28.5845C7.01792 28.9076 6.8548 29.1843 6.74026 29.3789C6.62569 29.5735 6.55967 29.6841 6.55967 29.6841L6.51111 29.6609C6.51111 29.6609 6.56355 29.5431 6.6548 29.336C6.7422 29.1272 6.882 28.838 7.04897 28.4881C7.13052 28.3132 7.24315 28.1329 7.34799 27.9365C7.45476 27.7419 7.58098 27.5438 7.70526 27.3367C7.82756 27.1296 7.9693 26.9226 8.11881 26.7155C8.26637 26.5084 8.41786 26.2996 8.57318 26.0943C8.72269 25.889 8.8916 25.6909 9.0547 25.4963ZM14.0351 18.1042C14.2467 17.9525 14.4583 17.8132 14.668 17.6883C15.1049 17.4544 15.5263 17.2759 15.8894 17.1474C16.2525 17.0207 16.5767 16.9564 16.7961 16.9242C16.9068 16.9064 16.9942 16.9011 17.0524 16.8975C17.1107 16.8939 17.1417 16.8921 17.1417 16.8921L17.1514 16.9439C17.1514 16.9439 17.035 17.0046 16.8408 17.1081C16.7418 17.1599 16.6233 17.2224 16.4854 17.2938C16.3476 17.3616 16.2039 17.4562 16.0389 17.5437C15.8777 17.6401 15.6991 17.7365 15.5107 17.8436C15.3243 17.9525 15.1185 18.0578 14.9185 18.1774C14.7166 18.2952 14.5011 18.4095 14.2817 18.5308C14.0642 18.6522 13.8351 18.7772 13.6254 18.9164C13.204 19.1967 12.7749 19.4894 12.3885 19.784C12.0138 20.0874 11.6604 20.3748 11.3595 20.6301C11.0702 20.8907 10.8372 21.1192 10.6702 21.2799C10.5032 21.4405 10.41 21.5316 10.41 21.5316L10.3692 21.4959C10.3692 21.4959 10.4527 21.3941 10.6003 21.2174C10.7459 21.0389 10.9575 20.7872 11.2274 20.4962C11.3672 20.3552 11.5187 20.2017 11.6779 20.0393C11.8371 19.8768 12.0138 19.7161 12.1905 19.5465C12.5672 19.2217 12.9749 18.8843 13.3885 18.563C13.6079 18.4059 13.8234 18.2542 14.0351 18.1042ZM23.9803 11.7314C24.0909 11.7404 24.1764 11.7564 24.2346 11.7653C24.2929 11.7761 24.322 11.7814 24.322 11.7814L24.3162 11.8349C24.3162 11.8349 24.188 11.8671 23.9705 11.9206C23.8618 11.9474 23.7298 11.9796 23.5783 12.017C23.4269 12.0545 23.2541 12.0956 23.0696 12.1402C22.8871 12.1956 22.6891 12.2473 22.4774 12.3062C22.2677 12.3651 22.0425 12.4258 21.8095 12.483C21.5726 12.5365 21.3396 12.6043 21.093 12.6668C20.8484 12.7293 20.5998 12.8043 20.3494 12.8792C19.8503 13.0345 19.3707 13.2327 18.9067 13.4148C18.4465 13.6022 18.0368 13.8093 17.6737 13.9806C17.3106 14.152 17.0214 14.3162 16.8175 14.4341C16.6136 14.5501 16.4951 14.6161 16.4951 14.6161L16.466 14.5715C16.466 14.5715 16.5748 14.4929 16.767 14.3555C16.8621 14.2859 16.9786 14.2038 17.1126 14.111C17.2485 14.0199 17.4097 13.9253 17.5825 13.8182C17.7573 13.7146 17.9456 13.6022 18.1436 13.4826C18.2426 13.4219 18.3456 13.3648 18.4524 13.3059C18.5611 13.2505 18.6718 13.1952 18.7863 13.1381C19.0135 13.0292 19.2484 12.9149 19.4872 12.8007C19.6076 12.7453 19.728 12.69 19.8484 12.6329L20.2231 12.483C20.4736 12.3812 20.7241 12.2866 20.9707 12.192C21.2134 12.092 21.4639 12.0153 21.7066 11.951C22.1939 11.8314 22.6444 11.751 23.0366 11.7225C23.4346 11.7028 23.7569 11.7064 23.9803 11.7314ZM25.0346 8.138C25.3025 8.01841 25.5627 7.90953 25.8093 7.80956C26.0598 7.71675 26.3006 7.63642 26.5258 7.5632C26.9782 7.41862 27.3685 7.29724 27.7024 7.23119C28.3645 7.08481 28.7432 7.0384 28.7432 7.0384C28.7432 7.0384 28.4208 7.23476 27.8286 7.52751C27.5296 7.66677 27.1763 7.85955 26.7568 8.05592C26.5471 8.15585 26.3219 8.25582 26.0831 8.36295C25.8481 8.47717 25.5996 8.59321 25.3355 8.71102C24.2735 9.16801 22.9298 9.79101 21.7124 10.4015C20.5047 11.0245 19.4329 11.644 18.8912 12.0081C19.4057 11.6136 20.3765 10.8639 21.5105 10.1088C22.6522 9.36082 23.9511 8.60393 25.0346 8.138ZM15.8913 13.5147C16.0369 13.3273 16.2427 13.0595 16.5029 12.7525C16.7612 12.4437 17.0447 12.0617 17.3747 11.6796C17.7048 11.2976 18.0407 10.8692 18.3902 10.4587C18.565 10.2534 18.7397 10.0463 18.9028 9.83743C19.0718 9.63215 19.2271 9.41793 19.4018 9.23406C19.5746 9.04663 19.7455 8.86635 19.9125 8.69855C20.0795 8.52897 20.2348 8.36651 20.3882 8.22012C20.5338 8.07199 20.6853 7.94701 20.8076 7.82919C20.9357 7.71316 21.0483 7.61141 21.1396 7.52751C21.326 7.35972 21.4367 7.25975 21.4367 7.25975L21.4949 7.2776C21.4949 7.2776 21.4813 7.30795 21.458 7.36329C21.4328 7.41863 21.3978 7.50075 21.3396 7.6025C21.2328 7.80778 21.0503 8.08984 20.8095 8.41472C20.5668 8.73959 20.2795 9.12875 19.928 9.50717C19.7455 9.69282 19.5572 9.88741 19.365 10.0838C19.1727 10.2783 18.9766 10.4765 18.7805 10.6746L18.4873 10.9674C18.3922 11.0674 18.299 11.1673 18.2058 11.2673C18.0174 11.4619 17.831 11.6547 17.6504 11.8403C17.5592 11.9314 17.4699 12.0224 17.3825 12.1098C17.299 12.2009 17.2155 12.2901 17.132 12.3758C16.967 12.5454 16.8117 12.7061 16.668 12.8524C16.5224 12.9988 16.3884 13.1327 16.2719 13.2505C16.1573 13.3719 16.0583 13.4772 15.9728 13.5629C15.8059 13.7343 15.7107 13.8325 15.7107 13.8325L15.6641 13.8039C15.6641 13.8057 15.7476 13.7004 15.8913 13.5147ZM9.51486 20.6194C9.60226 20.4034 9.72844 20.0982 9.87795 19.7322C10.0353 19.3663 10.2178 18.9414 10.4119 18.4862C10.6119 18.0328 10.8352 17.5526 11.0391 17.0617C11.1401 16.8154 11.2585 16.5797 11.3556 16.3388C11.4585 16.0995 11.5555 15.8639 11.6624 15.6354C11.7633 15.4051 11.8856 15.1963 11.9983 14.9928C12.1128 14.7911 12.2177 14.5983 12.3225 14.4198C12.4215 14.2431 12.5186 14.0753 12.606 13.9342C12.6973 13.7914 12.7769 13.6683 12.8409 13.5647C12.973 13.3594 13.0526 13.238 13.0526 13.238L13.1147 13.2416C13.1147 13.2416 13.1108 13.2737 13.1031 13.3327C13.0953 13.3915 13.0836 13.4808 13.0565 13.5897C13.0137 13.8146 12.907 14.1199 12.7807 14.5019C12.6487 14.8803 12.472 15.3159 12.241 15.7657C12.1264 15.9942 12.006 16.2298 11.8721 16.4637C11.74 16.6976 11.606 16.9332 11.4721 17.1706C11.2235 17.6543 10.9653 18.1292 10.7206 18.5701C10.6022 18.795 10.4974 19.0128 10.3828 19.2163C10.2702 19.418 10.1654 19.609 10.0663 19.7858C9.87019 20.141 9.7246 20.4409 9.60614 20.6444C9.49351 20.8497 9.42753 20.9657 9.42753 20.9657L9.37509 20.9496C9.37703 20.9532 9.42749 20.8318 9.51486 20.6194ZM5.43158 29.0308C5.45486 28.8023 5.48786 28.4756 5.52671 28.0882C5.56164 27.6973 5.62766 27.2475 5.68009 26.7566C5.72283 26.2639 5.81407 25.7533 5.87039 25.2285C5.8995 24.9679 5.92473 24.7037 5.9597 24.452C5.99269 24.1968 6.0199 23.9468 6.05871 23.7023C6.0995 23.4595 6.13443 23.2185 6.18881 22.9972C6.24319 22.774 6.28976 22.5634 6.3422 22.367C6.39075 22.1724 6.43539 21.9886 6.47618 21.8297C6.51697 21.6673 6.55384 21.5262 6.59072 21.412C6.66062 21.1817 6.70335 21.046 6.70335 21.046L6.76355 21.0335C6.76355 21.0335 6.76937 21.0657 6.77713 21.1228C6.78489 21.1817 6.80046 21.2692 6.80434 21.3816C6.81986 21.6048 6.82569 21.935 6.81012 22.3331C6.80042 22.5312 6.78295 22.7455 6.75578 22.9722C6.72862 23.1971 6.69171 23.4345 6.65674 23.6844C6.61404 23.9325 6.56161 24.1896 6.49947 24.4466C6.43733 24.7037 6.37523 24.9643 6.32473 25.2285C6.27424 25.4909 6.21986 25.7533 6.16358 26.0104C6.10532 26.2657 6.04901 26.5174 6.00628 26.7637C5.95582 27.0083 5.91503 27.2457 5.86259 27.467C5.81407 27.6902 5.75582 27.8973 5.72477 28.0936C5.6471 28.4863 5.58496 28.8094 5.53059 29.0326C5.48009 29.2575 5.45098 29.386 5.45098 29.386L5.39467 29.3842C5.39272 29.386 5.40631 29.2575 5.43158 29.0308ZM5.31118 47.6083C5.31118 47.6083 5.2471 47.4904 5.13645 47.2869C5.02187 47.0817 4.88401 46.7836 4.69957 46.4301C4.50927 46.0786 4.30733 45.6623 4.08792 45.2163C3.85493 44.7716 3.64329 44.2916 3.39669 43.8151C3.27437 43.5777 3.16758 43.3365 3.04525 43.1063C2.92875 42.8723 2.80644 42.6458 2.70353 42.4173C2.60451 42.1888 2.51519 41.9654 2.4317 41.7496C2.35015 41.5334 2.26277 41.332 2.20064 41.1391C2.13656 40.95 2.07637 40.7715 2.02395 40.616C1.97153 40.457 1.92686 40.3196 1.88803 40.2055C1.81036 39.977 1.77347 39.8397 1.77347 39.8397L1.81813 39.8003C1.81813 39.8003 1.83948 39.8253 1.88026 39.8698C1.91909 39.9164 1.98317 39.9842 2.05307 40.0788C2.20064 40.2628 2.38703 40.543 2.58702 40.8911C2.77731 41.2409 3.01614 41.6585 3.21225 42.121C3.30545 42.3546 3.40641 42.5975 3.50155 42.8493C3.59475 43.0974 3.68989 43.3509 3.78503 43.6023C3.99667 44.1005 4.17529 44.6041 4.37141 45.068C4.46266 45.3019 4.55977 45.525 4.63743 45.7411C4.71316 45.957 4.80052 46.1571 4.87431 46.3427C5.01993 46.7158 5.14033 47.0262 5.22381 47.2424C5.31118 47.4582 5.35973 47.5815 5.35973 47.5815L5.31118 47.6083ZM9.19062 56.0802C9.19062 56.0802 9.09549 55.984 8.92851 55.8127C8.76539 55.6376 8.53433 55.3913 8.25861 55.0949C7.97516 54.8003 7.66447 54.4488 7.315 54.0757C6.97325 53.6972 6.60822 53.2939 6.24707 52.8938C6.06647 52.6923 5.88592 52.4905 5.6995 52.2977C5.51312 52.1031 5.34029 51.9102 5.1772 51.7139C5.01411 51.5193 4.85878 51.3268 4.7151 51.139C4.57141 50.9516 4.44325 50.7731 4.32286 50.6035C4.2025 50.436 4.0918 50.2805 3.99279 50.1431C3.8918 50.004 3.81224 49.8807 3.74622 49.7789C3.61223 49.5737 3.53456 49.4521 3.53456 49.4521L3.56756 49.4041C3.56756 49.4041 3.5967 49.422 3.64912 49.4559C3.70155 49.4915 3.78115 49.5415 3.8724 49.6148C3.96756 49.6861 4.08016 49.7789 4.2025 49.8896C4.33066 49.9985 4.4724 50.127 4.62191 50.2699C4.91898 50.5573 5.24322 50.9109 5.58108 51.3052C5.74417 51.507 5.90532 51.7194 6.06453 51.939C6.2296 52.1548 6.39657 52.3744 6.56355 52.5923C6.88977 53.0294 7.24315 53.4563 7.54605 53.865C7.70332 54.0685 7.86447 54.2576 8.00233 54.445C8.14407 54.6307 8.27029 54.8113 8.40229 54.9699C8.65473 55.2929 8.86443 55.5591 9.0023 55.752C9.14598 55.9411 9.23141 56.0446 9.23141 56.0446L9.19062 56.0802ZM15.402 63.2866C15.402 63.2866 15.3709 63.2688 15.3146 63.2366C15.2583 63.2048 15.1748 63.1565 15.0719 63.092C14.8642 62.9653 14.5671 62.7834 14.2137 62.5692C13.8603 62.3496 13.4468 62.0924 13.006 61.8193C12.5652 61.5391 12.0973 61.2393 11.6332 60.943C11.4002 60.7929 11.1653 60.6449 10.9304 60.5038C10.6954 60.3609 10.4741 60.2163 10.2585 60.07C10.045 59.9217 9.83525 59.7771 9.64496 59.6308C9.45664 59.4828 9.27604 59.3451 9.11101 59.2115C8.94404 59.0848 8.79453 58.9563 8.65667 58.8508C8.52463 58.7384 8.41006 58.6401 8.31687 58.5582C8.12661 58.3937 8.01591 58.2958 8.01591 58.2958L8.03338 58.242C8.03338 58.242 8.06641 58.2529 8.12661 58.2725C8.18677 58.2937 8.27805 58.3225 8.39065 58.3704C8.61976 58.4581 8.92463 58.6205 9.30131 58.8168C9.67604 59.0186 10.0838 59.2828 10.5284 59.5774C10.7459 59.7309 10.9653 59.8933 11.1808 60.0683C11.4022 60.2359 11.6274 60.4054 11.8527 60.575C12.2954 60.9162 12.7575 61.241 13.171 61.5589C13.3768 61.7193 13.5904 61.8587 13.7807 62.0067C13.9729 62.1513 14.1496 62.2907 14.3185 62.4137C14.6583 62.6621 14.9379 62.8656 15.1263 63.0174C15.2214 63.092 15.2972 63.1493 15.3515 63.1869C15.4039 63.2243 15.4331 63.2455 15.4331 63.2455L15.402 63.2866ZM23.5084 68.6725C23.5084 68.6725 23.3706 68.6403 23.1356 68.567C22.8968 68.4975 22.557 68.3991 22.1532 68.2816C21.7473 68.1583 21.2736 68.0154 20.7688 67.8619C20.2698 67.6941 19.7183 67.5406 19.1863 67.3621C18.9164 67.2765 18.6465 67.1925 18.3786 67.1158C18.1125 67.0356 17.8543 66.9517 17.6038 66.864C17.3553 66.7749 17.1068 66.6893 16.8835 66.5926C16.6582 66.4964 16.4428 66.4107 16.2447 66.3213C16.0466 66.2394 15.8622 66.1572 15.7029 66.0856C15.5437 66.0089 15.4039 65.9431 15.2875 65.8893C15.0564 65.7786 14.9185 65.7125 14.9185 65.7125V65.6557C14.9185 65.6557 14.9535 65.6574 15.0176 65.6608C15.0816 65.6663 15.1787 65.6718 15.301 65.6896C15.5476 65.7163 15.8874 65.7965 16.3087 65.8948C16.7301 65.9948 17.2019 66.1483 17.7145 66.3213C17.9689 66.4142 18.2291 66.5159 18.4873 66.6303C18.7475 66.7427 19.0193 66.841 19.2853 66.9517C19.8135 67.1692 20.3532 67.3676 20.8464 67.5673C21.0911 67.6728 21.3396 67.7513 21.5648 67.8458C21.792 67.937 22.0056 68.0243 22.2017 68.1028C22.6017 68.2566 22.9318 68.3813 23.1589 68.4779C23.3861 68.5742 23.5201 68.6204 23.5201 68.6204L23.5084 68.6725ZM24.9142 70.5218C25.0793 70.4862 25.3219 70.4557 25.621 70.4324C25.918 70.4129 26.2675 70.4112 26.6403 70.4451C26.8287 70.4612 27.0248 70.4841 27.2209 70.5163C27.417 70.5468 27.615 70.577 27.815 70.6075C28.2131 70.6558 28.6092 70.7075 28.9781 70.7699C29.1625 70.7966 29.3412 70.8233 29.512 70.85C29.681 70.8788 29.8402 70.9055 29.9878 70.9305C30.281 70.9878 30.5275 71.0162 30.6965 71.0518C30.8673 71.0823 30.9644 71.1001 30.9644 71.1001L30.9625 71.1519C30.9625 71.1519 30.8654 71.1484 30.6926 71.1429C30.5217 71.134 30.2751 71.1306 29.9839 71.1145C29.6907 71.1035 29.3489 71.0895 28.9839 71.0768C28.6189 71.0607 28.2306 71.0357 27.8383 71.0251C27.6422 71.0234 27.45 71.009 27.2578 71.009C27.0675 71.0056 26.8792 71.0039 26.6947 70.9929C26.5102 70.9823 26.3336 70.9645 26.1666 70.936C25.9976 70.911 25.8384 70.8877 25.6889 70.8593C25.5414 70.8377 25.4035 70.8072 25.2812 70.786C25.1569 70.7627 25.0501 70.7394 24.9627 70.7181C24.7861 70.6736 24.6792 70.6465 24.6792 70.6465L24.6618 70.5931C24.6598 70.5914 24.7492 70.5575 24.9142 70.5218Z" fill="#46689C"/>
<path d="M39.0848 69.9434L35.2734 71.991L39.0848 74.0384L42.8944 71.991L39.0848 69.9434Z" fill="#46689C"/>
</svg>
